<svg width="503" height="207" viewBox="0 0 503 207" fill="none" xmlns="http://www.w3.org/2000/svg">
<path d="M105.251 64.7526L239.36 103.214L199.887 134.591L194.826 132.06L32.8826 75.3802C15.0688 70.5219 4.20513 49.7391 1 39.955L8.08502 35.4004L66.7197 53.1129L105.251 64.7526Z" fill="#D7D9D6"/>
<path d="M32.8826 75.3802C15.0688 70.5219 4.20513 49.7391 1 39.955L8.08502 35.4004L66.7197 53.1129M32.8826 75.3802L194.826 132.06L199.887 134.591L239.36 103.214L105.251 64.7526L66.7197 53.1129M32.8826 75.3802C34.0972 72.951 40.1363 68.6325 43.004 66.7769L58.8848 57.0672M2.01215 39.955L58.8848 57.0672M66.7197 53.1129L59.1984 57.1615L58.8848 57.0672" stroke="black"/>
<path d="M251 112.83L338.551 54.6318L351.203 58.6804L242.397 151.292L251 112.83Z" fill="#D7D9D6" stroke="black"/>
<path d="M264.158 37.9308C256.87 35.9065 267.194 24.6042 273.267 19.2061L431.668 67.7891C430.15 68.8012 424.887 71.9389 415.98 76.3923C407.073 80.8457 396.074 79.5974 391.688 78.4166C352.215 65.7648 271.445 39.955 264.158 37.9308Z" fill="#D7D9D6" stroke="black"/>
<path d="M326.405 43.498C330.859 22.4454 343.443 7.06073 349.178 2V39.9555L343.612 50.583L322.863 68.2956L318.814 69.3077C319.32 68.2956 321.547 61.7166 326.405 43.498Z" fill="#D7D9D6" stroke="black"/>
<path d="M246.446 98.1542L252.519 87.0206C253.869 85.3336 257.377 82.4659 260.616 84.4902C264.665 87.0206 268.713 90.0574 269.22 98.1542C269.152 97.3441 268.517 98.4911 268.207 99.1659L272.762 123.457L233.288 160.401L221.142 170.225L204.471 183.709L198.875 188.235C191.281 192.692 174.412 201.125 166.486 199.964C166.313 199.939 166.145 199.909 165.981 199.874C164.007 199.459 162.525 198.79 161.425 197.983C160.54 197.334 159.904 196.595 159.459 195.826C158.301 193.824 158.443 191.618 158.896 190.259C159.174 189.791 159.474 189.283 159.791 188.741C164.278 181.07 172.314 166.445 174.583 158.883C174.682 158.553 174.797 158.216 174.928 157.87C178.341 148.863 192.344 134.556 199.051 128.518C199.998 127.666 200.799 126.978 201.405 126.494C205.078 123.556 228.189 109.288 242.397 100.62C243.85 99.7334 245.21 98.9054 246.446 98.1542Z" fill="#D7D9D6"/>
<path d="M159.791 188.741C159.474 189.283 159.174 189.791 158.896 190.259C158.443 191.618 158.301 193.824 159.459 195.826M159.791 188.741C164.278 181.07 172.314 166.445 174.583 158.883C174.682 158.553 174.797 158.216 174.928 157.87M159.791 188.741C161.18 188.576 162.958 188.694 164.461 189.418M166.486 199.964C174.412 201.125 191.281 192.692 198.875 188.235L204.471 183.709M166.486 199.964C166.313 199.939 166.145 199.909 165.981 199.874C164.007 199.459 162.525 198.79 161.425 197.983M166.486 199.964C168.78 193.636 167.018 190.651 164.461 189.418M159.459 195.826C159.904 196.595 160.54 197.334 161.425 197.983M159.459 195.826C160.017 195.606 160.678 195.335 161.425 195.017M234.806 139.652C231.25 142.17 224.182 147.135 221.142 149.129M245.939 143.7L215.069 169.51L204.947 177.607L204.471 165.461M204.471 165.461C201.004 170.085 197.297 174.126 186.223 181.656C177.302 187.721 166.972 192.66 161.425 195.017M204.471 165.461C204.965 164.802 205.454 164.132 205.959 163.437C210.008 157.87 217.599 151.291 220.129 149.773C220.376 149.625 220.72 149.406 221.142 149.129M204.471 165.461C202.605 165.968 196.951 166.474 189.259 164.449C188.07 164.136 186.944 163.795 185.883 163.437M174.928 157.87C176.257 159.011 180.084 161.479 185.883 163.437M174.928 157.87C178.341 148.863 192.344 134.556 199.051 128.518M185.883 163.437C185.996 160.232 187.235 152.304 191.283 146.231C196.344 138.64 224.177 113.207 242.397 100.62M242.397 100.62C228.189 109.288 205.078 123.556 201.405 126.494C200.799 126.978 199.998 127.666 199.051 128.518M242.397 100.62C243.85 99.7334 245.21 98.9054 246.446 98.1542L252.519 87.0206C253.869 85.3336 257.377 82.4659 260.616 84.4902C264.665 87.0206 268.713 90.0574 269.22 98.1542C269.152 97.3441 268.517 98.4911 268.207 99.1659L272.762 123.457L233.288 160.401L221.142 170.225M199.051 128.518C201.354 127.675 207.073 127 211.526 131.049C217.093 136.109 221.142 143.425 221.142 149.129M221.142 149.129V170.225M221.142 170.225L204.471 183.709M204.471 180.138V183.709M161.425 188.741V195.017M161.425 197.983V195.017M164.461 189.418L161.425 195.017" stroke="black"/>
<path d="M261.122 87.5259C261.122 83.0725 267.195 75.5489 270.231 72.3438C274.28 80.8458 265.845 89.0442 261.122 92.0806C260.785 91.0684 260.312 88.7405 261.122 87.5259Z" fill="#D7D9D6" stroke="black"/>
<path d="M238.855 124.469C240.879 123.457 249.988 119.409 252.518 118.902C253.985 118.609 259.792 115.287 264.741 112.324L319.826 128.518L442.296 165.122L501 182.668L494.927 187.222C454.846 191.676 425.595 190.427 415.98 189.247L410.413 187.881L333.49 169.004L255.555 149.773L227.215 140.664C227.721 135.097 236.83 125.481 238.855 124.469Z" fill="#D7D9D6"/>
<path d="M269.725 109.287C268.378 110.123 266.621 111.197 264.741 112.324M494.927 187.222C454.846 191.676 425.595 190.427 415.98 189.247L410.413 187.881M494.927 187.222L501 182.668L442.296 165.122M494.927 187.222L436.203 169.004M264.741 112.324C259.792 115.287 253.985 118.609 252.518 118.902C249.988 119.409 240.879 123.457 238.855 124.469C236.83 125.481 227.721 135.097 227.215 140.664L255.555 149.773L333.49 169.004L410.413 187.881M264.741 112.324L319.826 128.518L442.296 165.122M442.296 165.122C440.591 166.222 438.482 167.568 436.203 169.004M410.413 187.881C411.257 185.637 413.551 181.048 415.98 180.643C417.875 180.327 428.11 174.102 436.203 169.004" stroke="black"/>
<path d="M84.5019 130.542V120.927C84.097 120.927 80.9594 122.951 79.4412 123.963V128.518L78.429 130.542V135.603L75.3926 146.23L78.429 145.724L80.4533 136.109L84.5019 130.542Z" fill="#D7D9D6" stroke="black"/>
<path d="M75.3862 139.646H75.3872H75.4119H75.4364H75.461H75.4855H75.5099H75.5343H75.5587H75.5831H75.6074H75.6316H75.6558H75.68H75.7042H75.7283H75.7523H75.7764H75.8004H75.8243H75.8482H75.8721H75.896H75.9198H75.9436H75.9673H75.991H76.0147H76.0383H76.0619H76.0854H76.1089H76.1324H76.1559H76.1793H76.2027H76.226H76.2493H76.2726H76.2959H76.3191H76.3423H76.3654H76.3885H76.4116H76.4346H76.4576H76.4806H76.5036H76.5265H76.5494H76.5722H76.595H76.6178H76.6406H76.6633H76.686H76.7087H76.7313H76.7539H76.7765H76.799H76.8215H76.844H76.8664H76.8889H76.9112H76.9336H76.9559H76.9782H77.0005H77.0228H77.045H77.0672H77.0893H77.1115H77.1336H77.1557H77.1777H77.1997H77.2217H77.2437H77.2657H77.2876H77.3095H77.3313H77.3532H77.375H77.3968H77.4185H77.4403H77.462H77.4837H77.5053H77.527H77.5486H77.5702H77.5917H77.6133H77.6348H77.6563H77.6778H77.6992H77.7206H77.742H77.7634H77.7848H77.8061H77.8274H77.8487H77.87H77.8912H77.9125H77.9337H77.9548H77.976H77.9971H78.0183H78.0394H78.0604H78.0815H78.1025H78.1236H78.1446H78.1655H78.1865H78.2074H78.2284H78.2493H78.2701H78.291H78.3119H78.3327H78.3535H78.3743H78.3951H78.4158H78.4366H78.4573H78.478H78.4987H78.5194H78.54H78.5607H78.5813H78.6019H78.6225H78.6431H78.6637H78.6842H78.7047H78.7253H78.7458H78.7663H78.7867H78.8072H78.8276H78.8481H78.8685H78.8889H78.9093H78.9297H78.95H78.9704H78.9907H79.0111H79.0314H79.0517H79.072H79.0923H79.1125H79.1328H79.153H79.1733H79.1935H79.2137H79.2339H79.2541H79.2743H79.2944H79.3146H79.3348H79.3549H79.375H79.3952H79.4153H79.4354H79.4555H79.4756H79.4957H79.5157H79.5358H79.5558H79.5759H79.5959H79.616H79.636H79.656H79.676H79.696H79.716H79.736H79.756H79.776H79.796H79.8159H79.8359H79.8559H79.8758H79.8958H79.9157H79.9357H79.9556H79.9755H79.9954H80.0154H80.0353H80.0552H80.0751H80.095H80.1149H80.1348H80.1547H80.1746H80.1945H80.2144H80.2343H80.2542H80.2741H80.294H80.3139H80.3337H80.3536H80.3735H80.3934H80.4133H80.4332H80.453H80.4729H80.4928H80.5127H80.5326H80.5524H80.5723H80.5922H80.6121H80.632H80.6519H80.6717H80.6916H80.7115H80.7314H80.7513H80.7712H80.7911H80.811H80.8309H80.8509H80.8708H80.8907H80.9106H80.9305H80.9505H80.9704H80.9903H81.0103H81.0302H81.0502H81.0702H81.0901H81.1101H81.1301H81.15H81.17H81.19H81.21H81.23H81.25H81.2701H81.2901H81.3101H81.3302H81.3502H81.3703H81.3903H81.4104H81.4305H81.4506H81.4707H81.4908H81.5109H81.531H81.5512H81.5713H81.5915H81.6116H81.6318H81.652H81.6722H81.6924H81.7126H81.7328H81.753H81.7733H81.7935H81.8138H81.8341H81.8544H81.8747H81.895H81.9153H81.9357H81.956H81.9764H81.9968H82.0172H82.0376H82.058H82.0784H82.0989H82.1193H82.1398H82.1603H82.1808H82.2013H82.2219H82.2424H82.263H82.2836H82.3041H82.3248H82.3454H82.366H82.3867H82.4074H82.4281H82.4488H82.4695H82.4902H82.511H82.5318H82.5526H82.5734H82.5942H82.615H82.6359H82.6568H82.6777H82.6986H82.7196H82.7405H82.7615H82.7825H82.8035H82.8246H82.8456H82.8667H82.8878H82.9089H82.9301H82.9512H82.9724H82.9936H83.0148H83.0361H83.0574H83.0786H83.1H83.1213H83.1426H83.164H83.1854H83.2068H83.2283H83.2498H83.2713H83.2928H83.3143H83.3359H83.3575H83.3791H83.4007H83.4224H83.4441H83.4658H83.4875H83.5093H83.5311H83.5529H83.5747H83.5966H83.6185H83.6404H83.6624H83.6843H83.7063H83.7284H83.7504H83.7725H83.7946H83.8167H83.8389H83.8611H83.8833H83.9055H83.9278H83.9501H83.9725H83.9948H84.0172H84.0396H84.0621H84.0846H84.1071H84.1296H84.1522H84.1748H84.1974H84.2201H84.2428H84.2655H84.2882H84.311H84.3339H84.3567H84.3796H84.4025H84.4254H84.4484H84.4714H84.4945H84.5176H84.5407H84.5638H84.587H84.6102H84.6334H84.6567H84.68H84.7034H84.7268H84.7502H84.7736H84.7971H84.8206H84.8442H84.8678H84.8914H84.9151H84.9388H84.9625H84.9863H85.0101H85.0339H85.0578H85.0817H85.1057H85.1297H85.1537H85.1778H85.2019H85.226H85.2502H85.2745H85.2987H85.323H85.3474H85.3717H85.3961H85.4206H85.4451H85.4696H85.4942H85.5188H85.5198V147.567C83.606 148.221 82.1325 148.677 80.6169 148.755C79.1019 148.833 77.5106 148.535 75.3862 147.601V139.646Z" fill="#D7D9D6" stroke="black"/>
<path d="M88.5566 147.748C88.5566 149.376 87.6948 150.885 86.233 152.003C84.7708 153.121 82.729 153.827 80.4533 153.827C78.1776 153.827 76.1359 153.121 74.6737 152.003C73.2119 150.885 72.3501 149.376 72.3501 147.748C72.3501 146.12 73.2119 144.611 74.6737 143.493C76.1359 142.375 78.1776 141.669 80.4533 141.669C82.729 141.669 84.7708 142.375 86.233 143.493C87.6948 144.611 88.5566 146.12 88.5566 147.748Z" fill="#D7D9D6" stroke="black"/>
<path d="M87.545 145.724C87.545 146.737 86.858 147.739 85.5644 148.515C84.2807 149.286 82.4751 149.778 80.4539 149.778C78.4327 149.778 76.6271 149.286 75.3434 148.515C74.0498 147.739 73.3628 146.737 73.3628 145.724C73.3628 144.71 74.0498 143.708 75.3434 142.932C76.6271 142.162 78.4327 141.669 80.4539 141.669C82.4751 141.669 84.2807 142.162 85.5644 142.932C86.858 143.708 87.545 144.71 87.545 145.724Z" fill="#D7D9D6" stroke="black"/>
<path d="M85.5198 138.133C85.5198 138.703 85.0896 139.329 84.1499 139.841C83.2292 140.343 81.9231 140.67 80.453 140.67C78.983 140.67 77.6769 140.343 76.7561 139.841C75.8165 139.329 75.3862 138.703 75.3862 138.133C75.3862 137.563 75.8165 136.938 76.7561 136.425C77.6769 135.923 78.983 135.597 80.453 135.597C81.9231 135.597 83.2292 135.923 84.1499 136.425C85.0896 136.938 85.5198 137.563 85.5198 138.133Z" fill="#D7D9D6" stroke="black"/>
<path d="M139.164 98.9046C139.164 98.73 139.043 98.4865 138.665 98.2598C138.298 98.0391 137.757 97.8864 137.133 97.8864C136.51 97.8864 135.969 98.0391 135.601 98.2598C135.224 98.4865 135.103 98.73 135.103 98.9046C135.103 99.0792 135.224 99.3228 135.601 99.5494C135.969 99.7701 136.51 99.9229 137.133 99.9229C137.757 99.9229 138.298 99.7701 138.665 99.5494C139.043 99.3228 139.164 99.0792 139.164 98.9046Z" fill="#D7D9D6" stroke="black"/>
<path d="M199.893 63.4813C199.893 65.1095 199.031 66.6183 197.569 67.7361C196.107 68.8543 194.065 69.5602 191.789 69.5602C189.514 69.5602 187.472 68.8543 186.01 67.7361C184.548 66.6183 183.686 65.1095 183.686 63.4813C183.686 61.8531 184.548 60.3443 186.01 59.2265C187.472 58.1083 189.514 57.4023 191.789 57.4023C194.065 57.4023 196.107 58.1083 197.569 59.2265C199.031 60.3443 199.893 61.8531 199.893 63.4813Z" fill="#D7D9D6" stroke="black"/>
<path d="M198.88 61.457C198.88 62.4701 198.193 63.4727 196.899 64.2489C195.616 65.0191 193.81 65.5117 191.789 65.5117C189.768 65.5117 187.962 65.0191 186.678 64.2489C185.385 63.4727 184.698 62.4701 184.698 61.457C184.698 60.4439 185.385 59.4413 186.678 58.6651C187.962 57.8949 189.768 57.4023 191.789 57.4023C193.81 57.4023 195.616 57.8949 196.899 58.6651C198.193 59.4413 198.88 60.4439 198.88 61.457Z" fill="#D7D9D6" stroke="black"/>
<path d="M186.741 61.316L187.2 53.3525H187.201H187.225H187.249H187.273H187.297H187.321H187.345H187.369H187.393H187.416H187.44H187.464H187.487H187.511H187.534H187.557H187.581H187.604H187.627H187.65H187.674H187.697H187.72H187.742H187.765H187.788H187.811H187.834H187.856H187.879H187.901H187.924H187.946H187.969H187.991H188.013H188.036H188.058H188.08H188.102H188.124H188.146H188.168H188.19H188.211H188.233H188.255H188.277H188.298H188.32H188.341H188.363H188.384H188.405H188.427H188.448H188.469H188.49H188.512H188.533H188.554H188.575H188.596H188.616H188.637H188.658H188.679H188.7H188.72H188.741H188.761H188.782H188.802H188.823H188.843H188.864H188.884H188.904H188.925H188.945H188.965H188.985H189.005H189.025H189.045H189.065H189.085H189.105H189.125H189.144H189.164H189.184H189.204H189.223H189.243H189.262H189.282H189.301H189.321H189.34H189.36H189.379H189.398H189.418H189.437H189.456H189.475H189.494H189.514H189.533H189.552H189.571H189.59H189.609H189.627H189.646H189.665H189.684H189.703H189.721H189.74H189.759H189.778H189.796H189.815H189.833H189.852H189.87H189.889H189.907H189.926H189.944H189.963H189.981H189.999H190.017H190.036H190.054H190.072H190.09H190.109H190.127H190.145H190.163H190.181H190.199H190.217H190.235H190.253H190.271H190.289H190.307H190.324H190.342H190.36H190.378H190.396H190.414H190.431H190.449H190.467H190.484H190.502H190.52H190.537H190.555H190.572H190.59H190.608H190.625H190.643H190.66H190.678H190.695H190.712H190.73H190.747H190.765H190.782H190.799H190.817H190.834H190.851H190.869H190.886H190.903H190.921H190.938H190.955H190.972H190.989H191.007H191.024H191.041H191.058H191.075H191.092H191.11H191.127H191.144H191.161H191.178H191.195H191.212H191.229H191.246H191.263H191.28H191.297H191.314H191.331H191.348H191.365H191.382H191.399H191.416H191.433H191.45H191.467H191.484H191.501H191.518H191.535H191.552H191.569H191.586H191.603H191.62H191.637H191.654H191.671H191.687H191.704H191.721H191.738H191.755H191.772H191.789H191.806H191.823H191.84H191.857H191.874H191.89H191.907H191.924H191.941H191.958H191.975H191.992H192.009H192.026H192.043H192.06H192.077H192.094H192.111H192.128H192.145H192.162H192.179H192.196H192.213H192.23H192.247H192.264H192.281H192.298H192.315H192.332H192.349H192.366H192.383H192.4H192.417H192.434H192.451H192.468H192.485H192.503H192.52H192.537H192.554H192.571H192.588H192.606H192.623H192.64H192.657H192.675H192.692H192.709H192.727H192.744H192.761H192.779H192.796H192.813H192.831H192.848H192.865H192.883H192.9H192.918H192.935H192.953H192.97H192.988H193.005H193.023H193.041H193.058H193.076H193.094H193.111H193.129H193.147H193.164H193.182H193.2H193.218H193.236H193.253H193.271H193.289H193.307H193.325H193.343H193.361H193.379H193.397H193.415H193.433H193.451H193.469H193.488H193.506H193.524H193.542H193.56H193.579H193.597H193.615H193.634H193.652H193.671H193.689H193.708H193.726H193.745H193.763H193.782H193.8H193.819H193.838H193.856H193.875H193.894H193.913H193.932H193.951H193.969H193.988H194.007H194.026H194.045H194.064H194.084H194.103H194.122H194.141H194.16H194.18H194.199H194.218H194.238H194.257H194.277H194.296H194.316H194.335H194.355H194.374H194.394H194.414H194.434H194.453H194.473H194.493H194.513H194.533H194.553H194.573H194.593H194.613H194.633H194.653H194.674H194.694H194.714H194.735H194.755H194.775H194.796H194.817H194.837H194.858H194.878H194.899H194.92H194.941H194.962H194.982H195.003H195.024H195.045H195.066H195.088H195.109H195.13H195.151H195.173H195.194H195.215H195.237H195.258H195.28H195.301H195.323H195.345H195.367H195.388H195.41H195.432H195.454H195.476H195.498H195.52H195.542H195.565H195.587H195.609H195.632H195.654H195.677H195.699H195.722H195.744H195.767H195.79H195.813H195.835H195.858H195.881H195.904H195.928H195.951H195.974H195.997H196.02H196.044H196.067H196.091H196.114H196.138H196.162H196.185H196.209H196.233H196.257H196.281H196.305H196.329H196.353H196.377H196.378L196.835 61.2815C194.931 61.9317 193.463 62.3839 191.953 62.4621C190.442 62.5402 188.856 62.2437 186.741 61.316Z" fill="#D7D9D6" stroke="black"/>
<path d="M196.856 51.8401C196.856 52.4099 196.425 53.0358 195.486 53.5483C194.565 54.0505 193.259 54.3766 191.789 54.3766C190.319 54.3766 189.013 54.0505 188.092 53.5483C187.152 53.0358 186.722 52.4099 186.722 51.8401C186.722 51.2704 187.152 50.6445 188.092 50.132C189.013 49.6298 190.319 49.3037 191.789 49.3037C193.259 49.3037 194.565 49.6298 195.486 50.132C196.425 50.6445 196.856 51.2704 196.856 51.8401Z" fill="#D7D9D6" stroke="black"/>
<path d="M196.476 45.5489L198.995 36.2694C198.604 36.1633 195.046 37.2949 193.315 37.8739L192.122 42.2694L190.615 43.9579L189.289 48.8418L183.574 58.3026L186.637 58.6097L191.11 49.8606L196.476 45.5489Z" fill="#D7D9D6" stroke="black"/>
<path d="M76.4043 144.958L185.716 63.9863L194.825 65.5045V67.5288V69.5531L87.5379 151.031L82.4772 149.007L76.4043 144.958Z" fill="#D7D9D6"/>
<path d="M82.4772 149.007L76.4043 144.958L185.716 63.9863L194.825 65.5045M82.4772 149.007L194.825 65.5045M82.4772 149.007L87.5379 151.031L194.825 69.5531V67.5288M194.825 65.5045V67.5288M86.0197 149.007L194.825 67.5288" stroke="black"/>
<path d="M88.5561 147.488C88.5561 149.116 87.6943 150.625 86.2325 151.743C84.7703 152.861 82.7285 153.567 80.4528 153.567C78.1772 153.567 76.1354 152.861 74.6732 151.743C73.2114 150.625 72.3496 149.116 72.3496 147.488C72.3496 145.86 73.2114 144.351 74.6732 143.233C76.1354 142.115 78.1772 141.409 80.4528 141.409C82.7285 141.409 84.7703 142.115 86.2325 143.233C87.6943 144.351 88.5561 145.86 88.5561 147.488Z" fill="#D7D9D6" stroke="black"/>
<path d="M87.5445 145.464C87.5445 146.477 86.8575 147.48 85.5639 148.256C84.2802 149.026 82.4746 149.518 80.4534 149.518C78.4322 149.518 76.6266 149.026 75.3429 148.256C74.0493 147.48 73.3623 146.477 73.3623 145.464C73.3623 144.451 74.0493 143.448 75.3429 142.672C76.6266 141.902 78.4322 141.409 80.4534 141.409C82.4746 141.409 84.2802 141.902 85.5639 142.672C86.8575 143.448 87.5445 144.451 87.5445 145.464Z" fill="#D7D9D6" stroke="black"/>
<path d="M75.4048 147.347L75.8639 139.382C77.8021 139.365 79.1547 139.247 80.4946 139.129L80.4962 139.129C81.8281 139.012 83.1475 138.897 85.0399 138.88L85.4995 147.313C83.5953 147.963 82.1268 148.415 80.6164 148.494C79.106 148.572 77.5196 148.275 75.4048 147.347Z" fill="#D7D9D6" stroke="black"/>
<path d="M85.5193 137.871C85.5193 138.441 85.0891 139.067 84.1494 139.58C83.2287 140.082 81.9226 140.408 80.4525 140.408C78.9825 140.408 77.6764 140.082 76.7556 139.58C75.816 139.067 75.3857 138.441 75.3857 137.871C75.3857 137.302 75.816 136.676 76.7556 136.163C77.6764 135.661 78.9825 135.335 80.4525 135.335C81.9226 135.335 83.2287 135.661 84.1494 136.163C85.0891 136.676 85.5193 137.302 85.5193 137.871Z" fill="#D7D9D6" stroke="black"/>
<path d="M84.7562 130.702L85.6212 121.125C85.218 121.089 81.911 122.823 80.3079 123.694L79.8981 128.23L78.708 130.155L78.2527 135.195L74.2726 145.507L77.3423 145.276L80.2233 135.882L84.7562 130.702Z" fill="#D7D9D6" stroke="black"/>
<path d="M159.406 87.7708C159.406 87.5962 159.286 87.3527 158.908 87.126C158.54 86.9053 158 86.7526 157.376 86.7526C156.752 86.7526 156.212 86.9053 155.844 87.126C155.466 87.3527 155.346 87.5962 155.346 87.7708C155.346 87.9455 155.466 88.189 155.844 88.4156C156.212 88.6363 156.752 88.7891 157.376 88.7891C158 88.7891 158.54 88.6363 158.908 88.4156C159.286 88.189 159.406 87.9455 159.406 87.7708Z" fill="#D7D9D6" stroke="black"/>
<path d="M315.277 151.797C315.277 151.623 315.156 151.379 314.779 151.152C314.411 150.932 313.87 150.779 313.247 150.779C312.623 150.779 312.083 150.932 311.715 151.152C311.337 151.379 311.216 151.623 311.216 151.797C311.216 151.972 311.337 152.215 311.715 152.442C312.083 152.663 312.623 152.815 313.247 152.815C313.87 152.815 314.411 152.663 314.779 152.442C315.156 152.215 315.277 151.972 315.277 151.797Z" fill="#D7D9D6" stroke="black"/>
<path d="M376.006 116.373C376.006 118.001 375.144 119.51 373.683 120.628C372.221 121.746 370.179 122.452 367.903 122.452C365.627 122.452 363.586 121.746 362.123 120.628C360.662 119.51 359.8 118.001 359.8 116.373C359.8 114.745 360.662 113.236 362.123 112.118C363.586 111 365.627 110.294 367.903 110.294C370.179 110.294 372.221 111 373.683 112.118C375.144 113.236 376.006 114.745 376.006 116.373Z" fill="#D7D9D6" stroke="black"/>
<path d="M374.994 114.349C374.994 115.362 374.307 116.364 373.013 117.14C371.729 117.911 369.924 118.403 367.903 118.403C365.881 118.403 364.076 117.911 362.792 117.14C361.499 116.364 360.812 115.362 360.812 114.349C360.812 113.335 361.499 112.333 362.792 111.557C364.076 110.787 365.881 110.294 367.903 110.294C369.924 110.294 371.729 110.787 373.013 111.557C374.307 112.333 374.994 113.335 374.994 114.349Z" fill="#D7D9D6" stroke="black"/>
<path d="M362.855 114.208L363.314 106.244H363.314H363.339H363.363H363.387H363.411H363.435H363.459H363.483H363.506H363.53H363.554H363.577H363.601H363.624H363.648H363.671H363.695H363.718H363.741H363.764H363.787H363.81H363.833H363.856H363.879H363.902H363.925H363.947H363.97H363.993H364.015H364.038H364.06H364.082H364.105H364.127H364.149H364.171H364.194H364.216H364.238H364.26H364.282H364.303H364.325H364.347H364.369H364.39H364.412H364.433H364.455H364.476H364.498H364.519H364.54H364.562H364.583H364.604H364.625H364.646H364.667H364.688H364.709H364.73H364.751H364.772H364.793H364.813H364.834H364.855H364.875H364.896H364.916H364.937H364.957H364.977H364.998H365.018H365.038H365.058H365.079H365.099H365.119H365.139H365.159H365.179H365.199H365.219H365.238H365.258H365.278H365.298H365.317H365.337H365.357H365.376H365.396H365.415H365.435H365.454H365.473H365.493H365.512H365.531H365.551H365.57H365.589H365.608H365.627H365.646H365.665H365.684H365.703H365.722H365.741H365.76H365.779H365.798H365.817H365.835H365.854H365.873H365.891H365.91H365.929H365.947H365.966H365.984H366.003H366.021H366.04H366.058H366.076H366.095H366.113H366.131H366.149H366.168H366.186H366.204H366.222H366.24H366.259H366.277H366.295H366.313H366.331H366.349H366.367H366.385H366.402H366.42H366.438H366.456H366.474H366.492H366.51H366.527H366.545H366.563H366.58H366.598H366.616H366.633H366.651H366.669H366.686H366.704H366.721H366.739H366.756H366.774H366.791H366.809H366.826H366.844H366.861H366.878H366.896H366.913H366.931H366.948H366.965H366.982H367H367.017H367.034H367.052H367.069H367.086H367.103H367.12H367.138H367.155H367.172H367.189H367.206H367.223H367.24H367.258H367.275H367.292H367.309H367.326H367.343H367.36H367.377H367.394H367.411H367.428H367.445H367.462H367.479H367.496H367.513H367.53H367.547H367.564H367.581H367.598H367.615H367.632H367.649H367.666H367.683H367.7H367.717H367.734H367.75H367.767H367.784H367.801H367.818H367.835H367.852H367.869H367.886H367.903H367.92H367.937H367.953H367.97H367.987H368.004H368.021H368.038H368.055H368.072H368.089H368.106H368.123H368.14H368.157H368.174H368.191H368.207H368.224H368.241H368.258H368.275H368.292H368.309H368.326H368.343H368.36H368.377H368.394H368.411H368.428H368.445H368.462H368.48H368.497H368.514H368.531H368.548H368.565H368.582H368.599H368.616H368.634H368.651H368.668H368.685H368.702H368.719H368.737H368.754H368.771H368.788H368.806H368.823H368.84H368.858H368.875H368.892H368.91H368.927H368.944H368.962H368.979H368.997H369.014H369.032H369.049H369.067H369.084H369.102H369.119H369.137H369.154H369.172H369.19H369.207H369.225H369.243H369.26H369.278H369.296H369.314H369.332H369.349H369.367H369.385H369.403H369.421H369.439H369.457H369.475H369.493H369.511H369.529H369.547H369.565H369.583H369.601H369.62H369.638H369.656H369.674H369.693H369.711H369.729H369.748H369.766H369.784H369.803H369.821H369.84H369.858H369.877H369.896H369.914H369.933H369.951H369.97H369.989H370.008H370.027H370.045H370.064H370.083H370.102H370.121H370.14H370.159H370.178H370.197H370.216H370.236H370.255H370.274H370.293H370.313H370.332H370.351H370.371H370.39H370.41H370.429H370.449H370.468H370.488H370.508H370.528H370.547H370.567H370.587H370.607H370.627H370.647H370.667H370.687H370.707H370.727H370.747H370.767H370.787H370.808H370.828H370.848H370.869H370.889H370.91H370.93H370.951H370.971H370.992H371.013H371.034H371.054H371.075H371.096H371.117H371.138H371.159H371.18H371.201H371.223H371.244H371.265H371.286H371.308H371.329H371.351H371.372H371.394H371.415H371.437H371.459H371.48H371.502H371.524H371.546H371.568H371.59H371.612H371.634H371.656H371.678H371.701H371.723H371.745H371.768H371.79H371.813H371.835H371.858H371.881H371.904H371.926H371.949H371.972H371.995H372.018H372.041H372.064H372.088H372.111H372.134H372.158H372.181H372.205H372.228H372.252H372.275H372.299H372.323H372.347H372.371H372.395H372.419H372.443H372.467H372.491H372.491L372.949 114.173C371.045 114.823 369.577 115.276 368.067 115.354C366.556 115.432 364.97 115.135 362.855 114.208Z" fill="#D7D9D6" stroke="black"/>
<path d="M372.97 104.732C372.97 105.301 372.539 105.927 371.6 106.44C370.679 106.942 369.373 107.268 367.903 107.268C366.433 107.268 365.127 106.942 364.206 106.44C363.266 105.927 362.836 105.301 362.836 104.732C362.836 104.162 363.266 103.536 364.206 103.024C365.127 102.521 366.433 102.195 367.903 102.195C369.373 102.195 370.679 102.521 371.6 103.024C372.539 103.536 372.97 104.162 372.97 104.732Z" fill="#D7D9D6" stroke="black"/>
<path d="M372.589 98.4405L375.109 89.161C374.718 89.0549 371.159 90.1865 369.429 90.7655L368.236 95.161L366.729 96.8495L365.403 101.733L359.688 111.194L362.751 111.501L367.224 102.752L372.589 98.4405Z" fill="#D7D9D6" stroke="black"/>
<path d="M252.519 197.85L361.83 116.878L370.94 118.396V120.42V122.445L263.652 203.922L258.591 201.898L252.519 197.85Z" fill="#D7D9D6"/>
<path d="M258.591 201.898L252.519 197.85L361.83 116.878L370.94 118.396M258.591 201.898L370.94 118.396M258.591 201.898L263.652 203.922L370.94 122.445V120.42M370.94 118.396V120.42M262.134 201.898L370.94 120.42" stroke="black"/>
<path d="M264.67 200.382C264.67 202.01 263.808 203.519 262.346 204.637C260.884 205.755 258.842 206.461 256.567 206.461C254.291 206.461 252.249 205.755 250.787 204.637C249.325 203.519 248.463 202.01 248.463 200.382C248.463 198.753 249.325 197.245 250.787 196.127C252.249 195.009 254.291 194.303 256.567 194.303C258.842 194.303 260.884 195.009 262.346 196.127C263.808 197.245 264.67 198.753 264.67 200.382Z" fill="#D7D9D6" stroke="black"/>
<path d="M263.658 198.357C263.658 199.37 262.971 200.373 261.677 201.149C260.393 201.919 258.588 202.412 256.567 202.412C254.545 202.412 252.74 201.919 251.456 201.149C250.163 200.373 249.476 199.37 249.476 198.357C249.476 197.344 250.163 196.342 251.456 195.566C252.74 194.795 254.545 194.303 256.567 194.303C258.588 194.303 260.393 194.795 261.677 195.566C262.971 196.342 263.658 197.344 263.658 198.357Z" fill="#D7D9D6" stroke="black"/>
<path d="M251.519 200.241L251.978 192.276C253.916 192.259 255.269 192.14 256.609 192.023L256.61 192.023C257.942 191.906 259.262 191.79 261.154 191.774L261.614 200.206C259.71 200.857 258.241 201.309 256.731 201.387C255.22 201.465 253.634 201.169 251.519 200.241Z" fill="#D7D9D6" stroke="black"/>
<path d="M261.634 190.765C261.634 191.335 261.203 191.961 260.264 192.473C259.343 192.975 258.037 193.301 256.567 193.301C255.097 193.301 253.791 192.975 252.87 192.473C251.93 191.961 251.5 191.335 251.5 190.765C251.5 190.195 251.93 189.569 252.87 189.057C253.791 188.555 255.097 188.229 256.567 188.229C258.037 188.229 259.343 188.555 260.264 189.057C261.203 189.569 261.634 190.195 261.634 190.765Z" fill="#D7D9D6" stroke="black"/>
<path d="M260.87 183.595L261.735 174.019C261.332 173.982 258.025 175.716 256.422 176.588L256.012 181.124L254.822 183.049L254.367 188.089L250.386 198.4L253.456 198.169L256.337 188.775L260.87 183.595Z" fill="#D7D9D6" stroke="black"/>
<path d="M335.52 140.663C335.52 140.489 335.4 140.245 335.022 140.019C334.654 139.798 334.114 139.645 333.49 139.645C332.866 139.645 332.326 139.798 331.958 140.019C331.58 140.245 331.459 140.489 331.459 140.663C331.459 140.838 331.58 141.082 331.958 141.308C332.326 141.529 332.866 141.682 333.49 141.682C334.114 141.682 334.654 141.529 335.022 141.308C335.4 141.082 335.52 140.838 335.52 140.663Z" fill="#D7D9D6" stroke="black"/>
</svg>
