<svg width="355" height="157" viewBox="0 0 355 157" fill="none" xmlns="http://www.w3.org/2000/svg">
<path d="M35.5508 106.309H36.2264L36.029 105.662L21.8485 59.2536L21.755 58.9476L21.4379 58.9043L9.62086 57.2929L8.82494 57.1844L9.07896 57.9464L25.0857 105.967L25.1997 106.309H25.5601H35.5508Z" fill="#D7D9D6" stroke="#353535"/>
<path d="M138.664 31.9309L138.174 31.5558L137.908 32.112L134.363 39.5245L134.241 39.781L134.398 40.0176L136.977 43.885L137.194 44.2118L137.563 44.0775L148.199 40.2101L149.056 39.8984L148.332 39.3434L138.664 31.9309ZM123.96 47.4144L124.428 46.6528H123.534H114.946L107.636 43.1566L107.515 43.0988L107.381 43.1092L40.991 48.2657L40.9611 48.268L40.9317 48.2739L7.09188 55.0419L6.68994 55.1222V55.5321V65.5229V65.9919L7.15796 66.0219L32.2961 67.6333L32.3171 67.6347L32.3381 67.6343L112.264 66.0228L112.538 66.0173L112.68 65.7846L123.96 47.4144Z" fill="#D7D9D6" stroke="#353535"/>
<path d="M126.608 47.9614L126.94 48.908L127.496 48.0733L128.684 46.2904L147.849 40.541L148.303 40.4049L148.191 39.9445C147.539 37.2495 146.402 33.4455 145.308 29.7829C145.043 28.8975 144.781 28.0203 144.529 27.1691C143.879 24.9765 143.295 22.9557 142.899 21.3944C142.7 20.613 142.551 19.9558 142.464 19.4542C142.421 19.203 142.394 18.9997 142.384 18.8441C142.379 18.7666 142.378 18.7066 142.38 18.662C142.382 18.6197 142.386 18.6024 142.386 18.6024C142.386 18.6023 142.386 18.6026 142.386 18.603C142.602 17.8248 142.617 17.1434 142.347 16.6007C142.067 16.0372 141.541 15.7419 140.95 15.6127C140.367 15.4854 139.667 15.5045 138.918 15.6057C138.162 15.7078 137.321 15.8986 136.442 16.1396C134.804 16.5888 132.991 17.2243 131.294 17.8194C131.172 17.8621 131.051 17.9046 130.93 17.9468C129.113 18.5831 127.473 19.1465 126.301 19.3901L125.903 19.4729V19.8796V45.8632V45.9483L125.931 46.0286L126.608 47.9614Z" fill="#D7D9D6" stroke="#353535"/>
<path d="M240.45 72.4025L240.822 72.1887L240.667 71.7882L226.809 36.0147L226.641 35.5806L226.196 35.7174L109.852 71.4909L109.241 71.6785L109.57 72.226L124.073 96.3973L124.194 96.6004L124.429 96.6348L161.814 102.114L161.82 102.114L183.413 105.015L183.581 105.038L183.728 104.953L240.45 72.4025Z" fill="#D7D9D6" stroke="#353535"/>
<path d="M236.324 51.0875L236.676 50.8041L236.43 50.4252L227.406 36.567L227.24 36.3124L226.938 36.3423L138.954 45.0439L138.764 45.0628L138.634 45.204L114.463 71.6313L114.373 71.7299L114.344 71.8603L113.055 77.6614L112.943 78.166L113.451 78.2613L128.92 81.1618L128.951 81.1675L128.981 81.1694L180.224 84.3923L180.338 84.3994L180.444 84.3564L209.772 72.4319L209.84 72.4043L209.897 72.3583L236.324 51.0875Z" fill="#D7D9D6" stroke="#353535"/>
<path d="M224.642 25.4032L224.409 24.9757L223.928 24.8957L198.79 20.706L198.587 20.6721L198.387 20.7213C185.687 23.8425 165.978 29.3466 148.11 35.7206C139.178 38.9071 130.685 42.3183 123.751 45.7659C116.859 49.1927 111.365 52.7227 108.574 56.1947L108.353 56.4692V56.7203C108.339 56.7553 108.317 56.806 108.284 56.8744C108.194 57.0604 108.053 57.3135 107.863 57.6278C107.485 58.2532 106.954 59.056 106.354 59.9285C105.156 61.6701 103.714 63.6405 102.752 64.923L102.552 65.1896V65.523V72.2909V72.7051L102.845 72.998L108.646 78.7991L108.892 79.0453L109.238 79.0854L131.467 81.6626L164.975 86.1733L165.041 86.1823H165.108H180.578H180.752L180.915 86.1238L211.532 75.1661L211.718 75.0996L211.864 74.9674L237.969 51.4407L238.556 50.9122L238.178 50.2191L224.642 25.4032ZM108.372 56.6688C108.372 56.6686 108.371 56.6719 108.369 56.679C108.37 56.6725 108.371 56.669 108.372 56.6688Z" fill="#D7D9D6" stroke="#353535" stroke-width="2"/>
<path d="M311.785 53.8957L311.632 53.7372L311.411 53.7434L231.163 55.9993L231.047 56.0026L230.944 56.0565L211.93 66.0473L210.856 66.6113L212.015 66.9678L232.964 73.4135L233.036 73.4359L233.112 73.4356C249.012 73.3819 273.153 73.253 293.898 73.0408C304.271 72.9347 313.797 72.8078 321.02 72.659C324.631 72.5846 327.669 72.5047 329.95 72.4192C332.213 72.3343 333.771 72.2429 334.39 72.1397C336.874 71.7256 338.251 70.4092 338.922 68.9007C339.578 67.4256 339.539 65.8129 339.308 64.7701L339.229 64.417L338.869 64.381C335.652 64.0593 328.343 63.4117 324.961 63.4117C324.257 63.4117 323.281 63.0632 322.113 62.4167C320.962 61.7798 319.69 60.8908 318.413 59.8921C315.86 57.8956 313.331 55.4951 311.785 53.8957Z" fill="#D7D9D6" stroke="#353535"/>
<path d="M325.821 40.9006L325.548 40.7706L325.306 40.9521C324.201 41.7803 322.556 43.2611 321.182 45.034C319.819 46.7929 318.66 48.9178 318.66 51.0206V66.8125V70.6799V71.1799H319.16H321.561V75.1918V75.6918H322.061H336.563H337.063V75.1918V71.1799H341.72H342.28L342.217 70.6239L339.639 47.7417L339.607 47.4657L339.357 47.3463L325.821 40.9006Z" fill="#D7D9D6" stroke="#353535"/>
<path d="M306.634 18.531L306.659 18.5907L306.691 18.6466C308.092 21.0713 310.291 24.7737 312.336 28.0034C313.358 29.617 314.348 31.1232 315.185 32.2962C315.603 32.8819 315.99 33.3958 316.33 33.8027C316.648 34.1837 316.99 34.5535 317.316 34.7703C317.851 35.1274 318.582 35.4927 319.329 35.866L319.377 35.8902C320.166 36.2847 321.022 36.713 321.874 37.2163C323.592 38.2318 325.163 39.4795 326 41.1534C326.387 41.9282 326.579 42.983 326.569 44.2287C326.56 45.4637 326.354 46.8204 326.007 48.1483C325.661 49.4751 325.182 50.747 324.643 51.8111C324.095 52.8915 323.52 53.6903 323.013 54.1341C322.243 54.8077 322.441 55.7657 322.675 56.3406C322.929 56.9671 323.408 57.6587 323.988 58.3633C325.164 59.7923 326.98 61.541 329.045 63.3632C333.188 67.0196 338.484 71.1003 342.096 73.7417L342.534 74.0619L343.041 73.8696L352.387 70.3244L353.349 69.9594L352.957 69.008L344.577 48.7041L344.44 48.3706L344.121 48.2018L338.876 45.425L336.838 42.2225C336.09 39.7302 333.435 33.8448 328.263 28.4143C323.01 22.8991 314.106 16.9777 310.328 14.7106L310.234 14.6541L310.129 14.6194C309.742 14.4902 309.27 14.382 308.79 14.356C308.325 14.3309 307.748 14.3769 307.235 14.6605C306.663 14.9767 306.279 15.5293 306.192 16.2589C306.112 16.9246 306.282 17.6859 306.634 18.531Z" fill="#D7D9D6" stroke="#353535" stroke-width="2"/>
<path d="M330.44 35.0509C332.496 35.0509 334.163 36.7177 334.163 38.7737C334.163 40.8298 332.496 42.4966 330.44 42.4966C328.384 42.4966 326.717 40.8298 326.717 38.7737C326.717 36.7177 328.384 35.0509 330.44 35.0509Z" fill="#D7D9D6" stroke="#353535"/>
<path d="M194.905 77.414L194.881 77.7704L195.21 77.9088L261.798 105.895L267.374 113.33L257.12 153.383L256.988 153.9L257.512 153.998L267.825 155.932L268.26 156.013L268.394 155.592L282.501 111.348C283.795 110.857 285.647 110.107 287.273 109.348C288.133 108.946 288.941 108.537 289.571 108.158C289.885 107.969 290.165 107.782 290.389 107.601C290.601 107.431 290.81 107.228 290.925 106.999C291.043 106.763 291.077 106.436 291.087 106.129C291.098 105.797 291.082 105.391 291.048 104.938C290.978 104.029 290.829 102.889 290.641 101.68C290.266 99.2585 289.732 96.5256 289.355 94.7474L289.305 94.5106L289.088 94.4032L215.607 57.9851L215.503 57.9331H215.385H196.693H196.226L196.194 58.3993L194.905 77.414Z" fill="#D7D9D6" stroke="#353535"/>
<path d="M263.728 95.8191C265.017 95.8191 264.372 99.3642 287.898 94.8511" stroke="#353535"/>
<path d="M35.0784 32.3996L35.1086 32.188L34.9766 32.0199C34.7523 31.7345 34.4191 31.5354 34.0619 31.3995C33.6987 31.2613 33.2729 31.1738 32.8174 31.1356C31.9069 31.0593 30.8267 31.1755 29.7876 31.5338C27.7158 32.2481 25.7441 33.9605 25.7047 37.0683C25.6746 37.0832 25.628 37.1027 25.5592 37.1234C25.3034 37.2006 24.8989 37.2507 24.3556 37.273C23.3864 37.3128 22.1121 37.2608 20.7568 37.2056C20.6061 37.1994 20.4545 37.1933 20.3022 37.1872C18.7965 37.1268 17.2278 37.0747 15.972 37.1625C15.3456 37.2063 14.7689 37.2865 14.3052 37.4296C13.9209 37.5483 13.522 37.7379 13.2826 38.0713C12.5733 38.4507 11.4509 39.234 10.4244 40.1983C9.34715 41.2104 8.28289 42.5067 7.99056 43.8222C7.72238 45.029 7.50648 47.405 7.38303 49.9333C7.25905 52.4723 7.22609 55.2149 7.33486 57.1727L7.3611 57.645H7.83409H31.0383H31.472L31.5333 57.2157L35.0784 32.3996Z" fill="#D7D9D6" stroke="#353535"/>
<path d="M42.0154 18.3144L42.1893 17.2898L41.1588 17.1554L33.7463 16.1886L33.4318 16.1476L33.1512 16.2953L14.781 25.9638L13.6329 26.568L14.5096 27.5244L17.3026 30.5713L12.0753 34.423L11.7557 34.6585L11.6846 35.0492L11.102 38.2536L2.98199 45.4367L2.66798 45.7145L2.64595 46.1331L2.00138 58.3799L1.95402 59.2797L2.84404 59.4202L8.96743 60.3871L9.51255 60.4732L9.87597 60.0578L27.9238 39.4317L28.2735 39.0321L28.1383 38.5187L26.9469 33.991C28.6512 34.3774 30.6999 34.8374 32.5243 35.2379C33.749 35.5068 34.876 35.7496 35.7308 35.9255C36.1575 36.0133 36.5216 36.0855 36.798 36.1362C36.9357 36.1614 37.0579 36.1824 37.1583 36.1975C37.2348 36.2089 37.3663 36.2281 37.4843 36.2281C37.9537 36.2281 38.2264 35.9258 38.2889 35.8547C38.3861 35.7439 38.4502 35.6291 38.4875 35.5566C38.5668 35.4028 38.635 35.2199 38.6936 35.0442C38.8149 34.6809 38.9494 34.181 39.0916 33.5959C39.3779 32.4175 39.7177 30.7988 40.0689 29.0159C40.7721 25.4456 41.5311 21.166 42.0154 18.3144Z" fill="#D7D9D6" stroke="#353535" stroke-width="2"/>
<path d="M112.576 15.8582H112.469L112.365 15.8809L54.3537 28.4499L52.3994 28.8734L53.9105 30.1829L58.7448 34.3726L59.063 34.6485L59.4827 34.6135L117.494 29.7792L117.833 29.7509L118.085 29.5212L125.352 22.8863L141.759 16.8913H149.639H149.768L149.894 16.8584L155.966 15.2603L210.38 6.88892L211.436 6.72648L211.205 5.68362L210.56 2.78307L210.353 1.85147L209.413 2.01474L155.676 11.3462H144.805H144.693L144.585 11.3708L124.712 15.8582H112.576Z" fill="#D7D9D6" stroke="#353535" stroke-width="2"/>
<path d="M147.219 85.3523L147.018 85.2852L146.83 85.3834L139.417 89.2508L138.978 89.4801L139.203 89.9216L146.616 104.424L146.847 104.877L147.296 104.638L156.965 99.4815L157.172 99.3711L157.219 99.1416L159.153 89.7954L159.243 89.3602L158.821 89.2197L147.219 85.3523Z" fill="#D7D9D6" stroke="#353535"/>
<path d="M143.516 106.309C148.776 106.309 153.04 102.045 153.04 96.7847C153.04 91.5248 148.776 87.2607 143.516 87.2607C138.256 87.2607 133.992 91.5248 133.992 96.7847C133.992 102.045 138.256 106.309 143.516 106.309Z" fill="#D7D9D6" stroke="#353535"/>
<path d="M22.3371 29.2496C24.66 29.2496 26.7045 30.8349 26.7045 32.9725C26.7045 35.11 24.66 36.6953 22.3371 36.6953C20.0143 36.6953 17.9697 35.11 17.9697 32.9725C17.9697 30.8349 20.0143 29.2496 22.3371 29.2496Z" fill="#D7D9D6" stroke="#353535"/>
<path d="M136.425 13.1351C137.376 13.1351 138.261 13.3267 138.927 13.6598C139.564 13.978 140.148 14.5101 140.148 15.2465C140.148 15.9829 139.564 16.515 138.927 16.8332C138.261 17.1663 137.376 17.3579 136.425 17.3579C135.474 17.3579 134.589 17.1663 133.922 16.8332C133.286 16.515 132.702 15.9829 132.702 15.2465C132.702 14.5101 133.286 13.978 133.922 13.6598C134.589 13.3267 135.474 13.1351 136.425 13.1351Z" fill="#D7D9D6" stroke="#353535"/>
<path d="M270.172 71.1465H269.835L269.709 71.4589C267.879 75.9808 265.404 82.7713 263.936 88.441C263.203 91.2685 262.711 93.8549 262.687 95.7511C262.675 96.692 262.777 97.5244 263.069 98.1395C263.218 98.4541 263.425 98.7292 263.708 98.9247C263.995 99.1229 264.329 99.2183 264.694 99.2183C269.108 99.2183 285.492 97.7104 293.104 96.9599L293.723 96.8989L293.531 96.3079L285.474 71.4921L285.361 71.1465H284.998H270.172Z" fill="#D7D9D6" stroke="#353535"/>
<path d="M256.959 87.1494H257.381L257.675 86.8479L270.636 73.5702L288.448 71.6953L291.479 72.6045L291.705 72.6723L291.937 72.6319L353.171 61.9965L353.156 60.0235L347.032 59.0567L346.891 59.0343L346.749 59.0526L291.638 66.1428L291.631 66.1438L265.658 69.671L250.965 67.7545L250.811 67.7344L250.658 67.762L181.045 80.3311L179.012 80.6981L180.561 82.065L186.04 86.8992L186.323 87.1494H186.701H256.959Z" fill="#D7D9D6" stroke="#353535" stroke-width="2"/>
<path d="M270.306 76.8611L270.358 77.3028H270.803H284.13H284.572L284.626 76.8639L285.816 67.1954L285.893 66.574L285.27 66.6368L269.8 68.1962L269.295 68.2472L269.354 68.752L270.306 76.8611Z" fill="#D7D9D6" stroke="#353535"/>
</svg>
