<svg width="1664" height="1719" viewBox="0 0 1664 1719" fill="none" xmlns="http://www.w3.org/2000/svg">
<circle cx="889" cy="944" r="750" fill="#1B1B1B" stroke="#D7D9D6" stroke-width="50" stroke-dasharray="10 10"/>
<circle cx="889" cy="951" r="699.5" fill="#1B1B1B" stroke="#D7D9D6"/>
<circle cx="889" cy="944" r="599.5" fill="#1B1B1B" stroke="#D7D9D6"/>
<path d="M244.664 317.96C230.936 317.96 222.68 310.088 220.664 300.008L225.944 295.304C227.768 305.48 233.336 312.008 245.432 312.008C254.648 312.008 260.312 307.592 260.312 299.912C260.312 290.984 253.592 287.432 243.416 287.432H233.144V282.056H243.512C252.92 282.056 257.72 278.12 257.72 270.44C257.72 263.24 253.304 257.768 244.088 257.768C235.16 257.768 228.632 262.76 227.288 271.976L222.008 267.368C224.504 258.536 232.664 251.72 244.184 251.72C258.584 251.72 264.344 260.552 264.344 269.192C264.344 275.912 259.736 282.632 250.616 283.976C262.808 285.128 266.936 292.328 266.936 300.488C266.936 311.048 258.392 317.96 244.664 317.96ZM320.148 317H277.716V312.104L300.084 289.832C306.708 283.208 312.372 277.064 312.372 269.48C312.372 263.528 308.916 257.768 300.18 257.768C288.468 257.768 282.324 265.448 283.956 278.312L278.1 274.568C276.756 261.896 285.876 251.72 300.564 251.72C313.044 251.72 318.804 259.304 318.804 269.096C318.804 279.464 309.588 288.392 303.828 293.96L291.252 306.152L284.724 311.816L292.788 311.432H320.148V317ZM353.227 317.96C339.499 317.96 331.243 310.088 329.227 300.008L334.507 295.304C336.331 305.48 341.899 312.008 353.995 312.008C363.211 312.008 368.875 307.592 368.875 299.912C368.875 290.984 362.155 287.432 351.979 287.432H341.707V282.056H352.075C361.483 282.056 366.283 278.12 366.283 270.44C366.283 263.24 361.867 257.768 352.651 257.768C343.723 257.768 337.195 262.76 335.851 271.976L330.571 267.368C333.067 258.536 341.227 251.72 352.747 251.72C367.147 251.72 372.906 260.552 372.906 269.192C372.906 275.912 368.299 282.632 359.179 283.976C371.371 285.128 375.499 292.328 375.499 300.488C375.499 311.048 366.955 317.96 353.227 317.96ZM396.871 275.72C390.343 275.72 385.831 271.016 385.831 263.72C385.831 256.424 390.343 251.72 396.871 251.72C403.399 251.72 408.007 256.424 408.007 263.72C408.007 271.016 403.399 275.72 396.871 275.72ZM396.871 272.168C401.095 272.168 403.975 269.288 403.975 263.72C403.975 258.152 401.095 255.176 396.871 255.176C392.743 255.176 389.959 258.152 389.959 263.72C389.959 269.288 392.743 272.168 396.871 272.168Z" fill="#D7D9D6" fill-opacity="0.5"/>
<path d="M322.68 959.48C317.88 959.48 314.376 956.984 312.504 952.952L315.144 950.648C316.488 954.2 319.128 956.456 322.92 956.456C327 956.456 331.08 953.864 331.08 943.064V938.888C330.696 944.696 326.76 947.816 321.528 947.816C314.856 947.816 311.88 943.016 311.88 937.112C311.88 931.016 316.248 926.36 322.776 926.36C329.304 926.36 334.344 929.912 334.344 941.96V943.88C334.344 954.344 329.928 959.48 322.68 959.48ZM322.584 944.888C327.192 944.888 330.648 942.44 330.648 937.784C330.648 932.024 327.576 929.336 322.824 929.336C318.072 929.336 315.192 932.648 315.192 936.92C315.192 941.672 317.544 944.888 322.584 944.888ZM352.577 959.48C343.937 959.48 339.905 952.232 339.905 942.872C339.905 933.608 343.937 926.36 352.577 926.36C361.217 926.36 365.297 933.608 365.297 942.872C365.297 952.232 361.217 959.48 352.577 959.48ZM352.625 956.504C359.441 956.504 362.033 950.696 362.033 942.872C362.033 935.144 359.441 929.288 352.625 929.288C345.809 929.288 343.169 935.144 343.169 942.872C343.169 950.696 345.809 956.504 352.625 956.504Z" fill="#D7D9D6" fill-opacity="0.5"/>
<path d="M494.512 550H491.344V522.928H485.584V520.72C488.992 520.72 490.768 520.144 491.824 517.84H494.512V550ZM513.42 550.48C504.78 550.48 500.748 543.232 500.748 533.872C500.748 524.608 504.78 517.36 513.42 517.36C522.06 517.36 526.14 524.608 526.14 533.872C526.14 543.232 522.06 550.48 513.42 550.48ZM513.468 547.504C520.284 547.504 522.876 541.696 522.876 533.872C522.876 526.144 520.284 520.288 513.468 520.288C506.652 520.288 504.012 526.144 504.012 533.872C504.012 541.696 506.652 547.504 513.468 547.504ZM543.702 550.48C535.062 550.48 531.03 543.232 531.03 533.872C531.03 524.608 535.062 517.36 543.702 517.36C552.342 517.36 556.422 524.608 556.422 533.872C556.422 543.232 552.342 550.48 543.702 550.48ZM543.75 547.504C550.566 547.504 553.158 541.696 553.158 533.872C553.158 526.144 550.566 520.288 543.75 520.288C536.934 520.288 534.294 526.144 534.294 533.872C534.294 541.696 536.934 547.504 543.75 547.504Z" fill="#D7D9D6" fill-opacity="0.5"/>
<path d="M888.264 408.48C879.624 408.48 875.592 401.232 875.592 391.872C875.592 382.608 879.624 375.36 888.264 375.36C896.904 375.36 900.984 382.608 900.984 391.872C900.984 401.232 896.904 408.48 888.264 408.48ZM888.312 405.504C895.128 405.504 897.72 399.696 897.72 391.872C897.72 384.144 895.128 378.288 888.312 378.288C881.496 378.288 878.856 384.144 878.856 391.872C878.856 399.696 881.496 405.504 888.312 405.504Z" fill="#D7D9D6" fill-opacity="0.5"/>
<path d="M864.688 117H856.24V31.24H863.792L905.648 92.168L913.072 103.56L912.56 92.424V31.24H921.008V117H913.456L870.448 54.536L864.176 45.064L864.688 54.664V117Z" fill="#D7D9D6" fill-opacity="0.5"/>
<path d="M67.84 982H10.24V896.24H67.84V903.664H18.688V934.512H59.52V942.064H18.688V974.576H67.84V982Z" fill="#D7D9D6" fill-opacity="0.5"/>
<circle cx="889" cy="944" r="499.5" fill="#1B1B1B" stroke="#D7D9D6"/>
<path d="M558.38 928H553.32V914.6H558.38C562.52 914.6 564.76 917.16 564.76 921.3C564.76 925.44 562.54 928 558.38 928ZM558.1 916.6H555.58V926H558.12C560.88 926 562.4 924.66 562.4 921.3C562.4 917.94 560.88 916.6 558.1 916.6ZM571.211 928.2C568.311 928.2 566.411 926.18 566.411 923.14C566.411 920.08 568.311 918.06 571.051 918.06C573.971 918.06 575.591 920 575.591 922.7C575.591 923.06 575.551 923.48 575.511 923.68H568.551C568.671 925.42 569.691 926.36 571.231 926.36C572.931 926.36 573.691 925.48 574.051 924.66L575.431 926.1C574.691 927.22 573.371 928.2 571.211 928.2ZM571.051 919.86C569.671 919.86 568.751 920.66 568.571 922.24H573.571C573.411 920.7 572.531 919.86 571.051 919.86ZM581.399 928.2C579.319 928.2 577.419 927.36 576.679 925.82L577.999 924.42C578.539 925.4 579.739 926.4 581.479 926.4C582.439 926.4 583.059 926.06 583.059 925.36C583.059 924.64 582.319 924.4 581.239 924.14L579.939 923.82C578.399 923.46 576.979 922.78 576.979 921C576.979 919.18 578.439 918.08 580.679 918.08C582.759 918.08 584.219 919.08 584.819 920.18L583.499 921.58C582.819 920.5 581.779 919.86 580.519 919.86C579.659 919.86 579.079 920.22 579.079 920.88C579.079 921.58 579.599 921.84 580.919 922.18L582.099 922.48C584.279 923.04 585.079 923.92 585.079 925.32C585.079 927.24 583.459 928.2 581.399 928.2ZM589.092 916.88H586.852V914.6H589.092V916.88ZM589.092 928H586.852V918.26H589.092V928ZM595.481 925.08C594.721 925.08 594.021 924.94 593.441 924.66C593.261 924.96 593.041 925.34 593.041 925.68C593.041 926.18 593.301 926.44 594.201 926.44H597.341C599.281 926.44 600.341 927.22 600.341 928.68C600.341 930.52 598.541 931.92 595.001 931.92C592.281 931.92 590.701 931.06 590.701 929.84C590.701 928.92 591.581 928.42 592.521 928.2C591.821 928 591.361 927.54 591.361 926.8C591.361 925.92 592.121 925.06 593.021 924.44C592.041 923.84 591.441 922.82 591.441 921.58C591.441 919.52 593.081 918.06 595.481 918.06C596.101 918.06 596.661 918.16 597.161 918.34L597.641 916L599.801 916.74L597.981 918.74C598.941 919.36 599.501 920.36 599.501 921.58C599.501 923.64 597.881 925.08 595.481 925.08ZM595.481 923.48C596.541 923.48 597.381 922.8 597.381 921.58C597.381 920.36 596.541 919.68 595.481 919.68C594.421 919.68 593.581 920.36 593.581 921.58C593.581 922.8 594.421 923.48 595.481 923.48ZM595.101 930.24C597.201 930.24 598.321 929.78 598.321 928.96C598.321 928.44 597.901 928.22 597.041 928.22H592.981C592.761 928.44 592.521 928.76 592.521 929.1C592.521 929.82 593.321 930.24 595.101 930.24ZM603.916 928H601.676V918.26H603.916V920.92C604.276 919.38 605.276 918.06 607.216 918.06C609.116 918.06 610.276 919.2 610.276 921.22V928H608.016V921.9C608.016 920.7 607.616 919.88 606.116 919.88C604.476 919.88 603.916 920.94 603.916 922.54V928ZM616.855 928.2C613.955 928.2 612.055 926.18 612.055 923.14C612.055 920.08 613.955 918.06 616.695 918.06C619.615 918.06 621.235 920 621.235 922.7C621.235 923.06 621.195 923.48 621.155 923.68H614.195C614.315 925.42 615.335 926.36 616.875 926.36C618.575 926.36 619.335 925.48 619.695 924.66L621.075 926.1C620.335 927.22 619.015 928.2 616.855 928.2ZM616.695 919.86C615.315 919.86 614.395 920.66 614.215 922.24H619.215C619.055 920.7 618.175 919.86 616.695 919.86ZM626.775 928.22C624.375 928.22 622.855 926.28 622.855 923.14C622.855 920 624.375 918.06 626.735 918.06C628.675 918.06 629.535 919.36 629.855 920.88V914.6H632.095V928H629.855V925.42C629.535 926.92 628.715 928.22 626.775 928.22ZM625.155 923.14C625.155 925.34 626.215 926.4 627.635 926.4C629.195 926.4 629.855 925.36 629.855 923.76V922.54C629.855 920.94 629.195 919.88 627.615 919.88C626.215 919.88 625.155 920.96 625.155 923.14ZM640.67 928.2C639.07 928.2 638.11 927.3 638.11 925.9C638.11 924.52 639.07 923.68 640.65 923.06L643.91 921.68C643.83 920.7 643.39 920.04 642.05 920.04C640.75 920.04 639.73 920.8 639.17 921.82L637.83 920.22C638.59 919.18 640.11 918.06 642.27 918.06C644.69 918.06 646.05 919.44 646.05 921.84V925.5C646.05 925.94 646.21 926.08 646.57 926.08H647.19V928H645.81C644.77 928 643.95 927.52 643.95 926.12V925.4C643.65 926.68 642.71 928.2 640.67 928.2ZM640.27 925.56C640.27 926.12 640.65 926.46 641.47 926.46C642.95 926.46 643.95 925.58 643.95 924.26V923.22L641.45 924.34C640.61 924.72 640.27 925.06 640.27 925.56ZM651.143 928H648.903V918.26H651.143V920.92C651.503 919.38 652.503 918.06 654.443 918.06C656.343 918.06 657.503 919.2 657.503 921.22V928H655.243V921.9C655.243 920.7 654.843 919.88 653.343 919.88C651.703 919.88 651.143 920.94 651.143 922.54V928ZM663.142 928.22C660.742 928.22 659.222 926.28 659.222 923.14C659.222 920 660.742 918.06 663.102 918.06C665.042 918.06 665.902 919.36 666.222 920.88V914.6H668.462V928H666.222V925.42C665.902 926.92 665.082 928.22 663.142 928.22ZM661.522 923.14C661.522 925.34 662.582 926.4 664.002 926.4C665.562 926.4 666.222 925.36 666.222 923.76V922.54C666.222 920.94 665.562 919.88 663.982 919.88C662.582 919.88 661.522 920.96 661.522 923.14ZM678.357 928.22C675.957 928.22 674.437 926.28 674.437 923.14C674.437 920 675.957 918.06 678.317 918.06C680.257 918.06 681.117 919.36 681.437 920.88V914.6H683.677V928H681.437V925.42C681.117 926.92 680.297 928.22 678.357 928.22ZM676.737 923.14C676.737 925.34 677.797 926.4 679.217 926.4C680.777 926.4 681.437 925.36 681.437 923.76V922.54C681.437 920.94 680.777 919.88 679.197 919.88C677.797 919.88 676.737 920.96 676.737 923.14ZM690.352 928.2C687.452 928.2 685.552 926.18 685.552 923.14C685.552 920.08 687.452 918.06 690.192 918.06C693.112 918.06 694.732 920 694.732 922.7C694.732 923.06 694.692 923.48 694.652 923.68H687.692C687.812 925.42 688.832 926.36 690.372 926.36C692.072 926.36 692.832 925.48 693.192 924.66L694.572 926.1C693.832 927.22 692.512 928.2 690.352 928.2ZM690.192 919.86C688.812 919.86 687.892 920.66 687.712 922.24H692.712C692.552 920.7 691.672 919.86 690.192 919.86ZM701.447 928H698.587L695.127 918.26H697.607L699.267 923.56L700.067 926.54L700.847 923.56L702.487 918.26H704.927L701.447 928ZM710 928.2C707.1 928.2 705.2 926.18 705.2 923.14C705.2 920.08 707.1 918.06 709.84 918.06C712.76 918.06 714.38 920 714.38 922.7C714.38 923.06 714.34 923.48 714.3 923.68H707.34C707.46 925.42 708.48 926.36 710.02 926.36C711.72 926.36 712.48 925.48 712.84 924.66L714.22 926.1C713.48 927.22 712.16 928.2 710 928.2ZM709.84 919.86C708.46 919.86 707.54 920.66 707.36 922.24H712.36C712.2 920.7 711.32 919.86 709.84 919.86ZM718.623 928H716.383V914.6H718.623V928ZM725.092 928.2C722.293 928.2 720.373 926.16 720.373 923.14C720.373 920.1 722.293 918.06 725.092 918.06C727.933 918.06 729.853 920.1 729.853 923.14C729.853 926.16 727.933 928.2 725.092 928.2ZM725.113 926.34C726.573 926.34 727.573 925.38 727.573 923.14C727.573 920.88 726.573 919.92 725.113 919.92C723.673 919.92 722.673 920.88 722.673 923.14C722.673 925.38 723.673 926.34 725.113 926.34ZM734.053 931.72H731.813V918.26H734.053V920.86C734.373 919.34 735.233 918.04 737.173 918.04C739.533 918.04 741.053 919.98 741.053 923.12C741.053 926.26 739.533 928.2 737.133 928.2C735.193 928.2 734.373 926.9 734.053 925.4V931.72ZM734.053 923.72C734.053 925.32 734.713 926.38 736.293 926.38C737.693 926.38 738.753 925.32 738.753 923.12C738.753 920.92 737.693 919.86 736.293 919.86C734.713 919.86 734.053 920.92 734.053 922.52V923.72ZM747.383 928.2C744.483 928.2 742.583 926.18 742.583 923.14C742.583 920.08 744.483 918.06 747.223 918.06C750.143 918.06 751.763 920 751.763 922.7C751.763 923.06 751.723 923.48 751.683 923.68H744.723C744.843 925.42 745.863 926.36 747.403 926.36C749.103 926.36 749.863 925.48 750.223 924.66L751.603 926.1C750.863 927.22 749.543 928.2 747.383 928.2ZM747.223 919.86C745.843 919.86 744.923 920.66 744.743 922.24H749.743C749.583 920.7 748.703 919.86 747.223 919.86ZM757.302 928.22C754.902 928.22 753.382 926.28 753.382 923.14C753.382 920 754.902 918.06 757.262 918.06C759.202 918.06 760.062 919.36 760.382 920.88V914.6H762.622V928H760.382V925.42C760.062 926.92 759.242 928.22 757.302 928.22ZM755.682 923.14C755.682 925.34 756.742 926.4 758.162 926.4C759.722 926.4 760.382 925.36 760.382 923.76V922.54C760.382 920.94 759.722 919.88 758.142 919.88C756.742 919.88 755.682 920.96 755.682 923.14ZM771.377 928H769.137V914.6H771.377V920.88C771.697 919.36 772.557 918.06 774.497 918.06C776.877 918.06 778.397 920 778.397 923.14C778.397 926.28 776.877 928.22 774.457 928.22C772.517 928.22 771.697 926.92 771.377 925.42V928ZM771.377 923.76C771.377 925.36 772.037 926.4 773.617 926.4C775.037 926.4 776.097 925.34 776.097 923.14C776.097 920.96 775.037 919.88 773.617 919.88C772.037 919.88 771.377 920.94 771.377 922.54V923.76ZM781.838 931.34C780.438 931.34 779.298 930.62 778.758 929.86L779.818 928.06C780.338 928.8 780.938 929.36 781.838 929.36C782.598 929.36 783.078 929.02 783.438 927.94L783.618 927.4H782.238L779.018 918.26H781.478L783.238 923.78L783.938 926.38L784.638 923.78L786.378 918.26H788.858L785.258 928.68C784.558 930.64 783.418 931.34 781.838 931.34ZM796.693 928H794.433V914.6H796.533L801.953 922.4L803.273 924.5L803.133 921.96V914.6H805.393V928H803.313L797.753 920.08L796.533 918.18L796.693 920.62V928ZM810.123 928.2C808.523 928.2 807.563 927.3 807.563 925.9C807.563 924.52 808.523 923.68 810.103 923.06L813.363 921.68C813.283 920.7 812.843 920.04 811.503 920.04C810.203 920.04 809.183 920.8 808.623 921.82L807.283 920.22C808.043 919.18 809.563 918.06 811.723 918.06C814.143 918.06 815.503 919.44 815.503 921.84V925.5C815.503 925.94 815.663 926.08 816.023 926.08H816.643V928H815.263C814.223 928 813.403 927.52 813.403 926.12V925.4C813.103 926.68 812.163 928.2 810.123 928.2ZM809.723 925.56C809.723 926.12 810.103 926.46 810.923 926.46C812.403 926.46 813.403 925.58 813.403 924.26V923.22L810.903 924.34C810.063 924.72 809.723 925.06 809.723 925.56ZM820.596 928H818.356V914.6H820.596V920.74L820.516 922.62L822.116 920.86L824.776 918.26H827.516L823.576 922.1L827.516 928H824.896L822.056 923.44L820.596 924.88V928ZM830.67 928.2C829.07 928.2 828.11 927.3 828.11 925.9C828.11 924.52 829.07 923.68 830.65 923.06L833.91 921.68C833.83 920.7 833.39 920.04 832.05 920.04C830.75 920.04 829.73 920.8 829.17 921.82L827.83 920.22C828.59 919.18 830.11 918.06 832.27 918.06C834.69 918.06 836.05 919.44 836.05 921.84V925.5C836.05 925.94 836.21 926.08 836.57 926.08H837.19V928H835.81C834.77 928 833.95 927.52 833.95 926.12V925.4C833.65 926.68 832.71 928.2 830.67 928.2ZM830.27 925.56C830.27 926.12 830.65 926.46 831.47 926.46C832.95 926.46 833.95 925.58 833.95 924.26V923.22L831.45 924.34C830.61 924.72 830.27 925.06 830.27 925.56ZM841.143 928H838.903V918.26H841.143V920.92C841.503 919.38 842.463 918.06 844.303 918.06C846.083 918.06 847.043 919.1 847.143 920.94C847.483 919.4 848.443 918.06 850.303 918.06C852.163 918.06 853.143 919.2 853.143 921.22V928H850.903V921.9C850.903 920.56 850.343 919.88 849.023 919.88C847.703 919.88 847.143 920.94 847.143 922.54V928H844.903V921.9C844.903 920.56 844.343 919.88 843.023 919.88C841.703 919.88 841.143 920.94 841.143 922.54V928ZM857.525 928.2C855.925 928.2 854.965 927.3 854.965 925.9C854.965 924.52 855.925 923.68 857.505 923.06L860.765 921.68C860.685 920.7 860.245 920.04 858.905 920.04C857.605 920.04 856.585 920.8 856.025 921.82L854.685 920.22C855.445 919.18 856.965 918.06 859.125 918.06C861.545 918.06 862.905 919.44 862.905 921.84V925.5C862.905 925.94 863.065 926.08 863.425 926.08H864.045V928H862.665C861.625 928 860.805 927.52 860.805 926.12V925.4C860.505 926.68 859.565 928.2 857.525 928.2ZM857.125 925.56C857.125 926.12 857.505 926.46 858.325 926.46C859.805 926.46 860.805 925.58 860.805 924.26V923.22L858.305 924.34C857.465 924.72 857.125 925.06 857.125 925.56Z" fill="#D7D9D6"/>
<path d="M702.38 889.54C698.84 889.54 696.28 886.86 696.28 883.34C696.28 879.8 698.84 877.12 702.38 877.12C705.84 877.12 708.44 879.8 708.44 883.34C708.44 886.86 705.84 889.54 702.38 889.54ZM702.36 888.06C704.98 888.06 706.9 886.08 706.9 883.32C706.9 880.58 704.98 878.58 702.36 878.58C699.74 878.58 697.8 880.58 697.8 883.32C697.8 886.08 699.74 888.06 702.36 888.06ZM702.48 887C700.38 887 699 885.42 699 883.28C699 881.16 700.38 879.58 702.48 879.58C704.1 879.58 705.24 880.52 705.7 881.74L704.46 882.78C704.24 881.82 703.58 881.1 702.5 881.1C701.36 881.1 700.66 881.8 700.66 883.28C700.66 884.78 701.36 885.48 702.5 885.48C703.58 885.48 704.24 884.74 704.46 883.8L705.7 884.84C705.24 886.06 704.1 887 702.48 887ZM720.494 890H710.914V888.28L715.534 883.88C716.834 882.62 717.754 881.6 717.754 880.34C717.754 879.38 717.194 878.56 715.894 878.56C713.914 878.56 712.674 879.82 712.794 882.4L710.894 881.04C710.834 878.36 713.014 876.4 716.094 876.4C718.794 876.4 720.114 878 720.114 880.2C720.114 882.36 718.194 884.22 716.774 885.4L714.914 887.04L713.354 888.2L715.354 888H720.494V890ZM727.595 890.18C723.855 890.18 721.955 887.22 721.955 883.28C721.955 879.36 723.855 876.4 727.595 876.4C731.335 876.4 733.215 879.36 733.215 883.28C733.215 887.22 731.335 890.18 727.595 890.18ZM727.595 888.02C729.995 888.02 730.855 886.1 730.855 883.28C730.855 880.48 729.995 878.54 727.595 878.54C725.215 878.54 724.335 880.48 724.335 883.28C724.335 886.1 725.215 888.02 727.595 888.02ZM744.674 890H735.094V888.28L739.714 883.88C741.014 882.62 741.934 881.6 741.934 880.34C741.934 879.38 741.374 878.56 740.074 878.56C738.094 878.56 736.854 879.82 736.974 882.4L735.074 881.04C735.014 878.36 737.194 876.4 740.274 876.4C742.974 876.4 744.294 878 744.294 880.2C744.294 882.36 742.374 884.22 740.954 885.4L739.094 887.04L737.534 888.2L739.534 888H744.674V890ZM754.779 890H752.539V886.98H745.839V885.24L752.399 876.6H754.779V885.02H757.039V886.98H754.779V890ZM748.319 885.02H752.539V879.52L748.319 885.02ZM768.4 890H766.14V878.6H762.04V876.6H772.52V878.6H768.4V890ZM776.594 890.2C773.694 890.2 771.794 888.18 771.794 885.14C771.794 882.08 773.694 880.06 776.434 880.06C779.354 880.06 780.974 882 780.974 884.7C780.974 885.06 780.934 885.48 780.894 885.68H773.934C774.054 887.42 775.074 888.36 776.614 888.36C778.314 888.36 779.074 887.48 779.434 886.66L780.814 888.1C780.074 889.22 778.754 890.2 776.594 890.2ZM776.434 881.86C775.054 881.86 774.134 882.66 773.954 884.24H778.954C778.794 882.7 777.914 881.86 776.434 881.86ZM785.178 890H782.938V880.26H785.178V883.02C785.538 881.46 786.518 880.06 788.258 880.06C789.478 880.06 790.378 880.86 790.378 882.3C790.378 883.24 790.118 883.94 789.938 884.24H787.638C787.958 883.92 788.258 883.28 788.258 882.72C788.258 882.18 787.998 881.74 787.338 881.74C786.218 881.74 785.178 883.02 785.178 884.64V890ZM793.947 890H791.707V880.26H793.947V883.02C794.307 881.46 795.287 880.06 797.027 880.06C798.247 880.06 799.147 880.86 799.147 882.3C799.147 883.24 798.887 883.94 798.707 884.24H796.407C796.727 883.92 797.027 883.28 797.027 882.72C797.027 882.18 796.767 881.74 796.107 881.74C794.987 881.74 793.947 883.02 793.947 884.64V890ZM802.595 890.2C800.995 890.2 800.035 889.3 800.035 887.9C800.035 886.52 800.995 885.68 802.575 885.06L805.835 883.68C805.755 882.7 805.315 882.04 803.975 882.04C802.675 882.04 801.655 882.8 801.095 883.82L799.755 882.22C800.515 881.18 802.035 880.06 804.195 880.06C806.615 880.06 807.975 881.44 807.975 883.84V887.5C807.975 887.94 808.135 888.08 808.495 888.08H809.115V890H807.735C806.695 890 805.875 889.52 805.875 888.12V887.4C805.575 888.68 804.635 890.2 802.595 890.2ZM802.195 887.56C802.195 888.12 802.575 888.46 803.395 888.46C804.875 888.46 805.875 887.58 805.875 886.26V885.22L803.375 886.34C802.535 886.72 802.195 887.06 802.195 887.56ZM813.068 890H810.828V876.6H813.068V882.92C813.428 881.38 814.428 880.06 816.368 880.06C818.268 880.06 819.428 881.2 819.428 883.22V890H817.168V883.9C817.168 882.7 816.768 881.88 815.268 881.88C813.628 881.88 813.068 882.94 813.068 884.54V890ZM823.806 890.2C822.206 890.2 821.246 889.3 821.246 887.9C821.246 886.52 822.206 885.68 823.786 885.06L827.046 883.68C826.966 882.7 826.526 882.04 825.186 882.04C823.886 882.04 822.866 882.8 822.306 883.82L820.966 882.22C821.726 881.18 823.246 880.06 825.406 880.06C827.826 880.06 829.186 881.44 829.186 883.84V887.5C829.186 887.94 829.346 888.08 829.706 888.08H830.326V890H828.946C827.906 890 827.086 889.52 827.086 888.12V887.4C826.786 888.68 825.846 890.2 823.806 890.2ZM823.406 887.56C823.406 888.12 823.786 888.46 824.606 888.46C826.086 888.46 827.086 887.58 827.086 886.26V885.22L824.586 886.34C823.746 886.72 823.406 887.06 823.406 887.56ZM834.279 893.72H832.039V880.26H834.279V882.86C834.599 881.34 835.459 880.04 837.399 880.04C839.759 880.04 841.279 881.98 841.279 885.12C841.279 888.26 839.759 890.2 837.359 890.2C835.419 890.2 834.599 888.9 834.279 887.4V893.72ZM834.279 885.72C834.279 887.32 834.939 888.38 836.519 888.38C837.919 888.38 838.979 887.32 838.979 885.12C838.979 882.92 837.919 881.86 836.519 881.86C834.939 881.86 834.279 882.92 834.279 884.52V885.72ZM846.438 890.22C844.598 890.22 843.538 889.06 843.538 887.34V882H842.018V880.26H843.538V879.08L845.778 877.66V880.26H848.758V882H845.778V886.8C845.778 887.86 846.278 888.12 846.938 888.12C847.698 888.12 848.258 887.5 848.538 886.94L849.238 888.94C848.818 889.56 847.858 890.22 846.438 890.22ZM852.99 878.88H850.75V876.6H852.99V878.88ZM852.99 890H850.75V880.26H852.99V890ZM856.84 890H854.28L857.72 885.12L854.48 880.26H857.04L858.44 882.46L859.34 884.02L860.2 882.52L861.64 880.26H864.2L860.82 885.08L864.1 890H861.54L860.1 887.74L859.18 886.2L858.28 887.72L856.84 890Z" fill="#D7D9D6"/>
<circle cx="889" cy="951" r="660" stroke="#D7D9D6" stroke-opacity="0.5" stroke-width="20" stroke-dasharray="2.5 2.5"/>
<path d="M730.25 715L697 848.583H729.083L746.583 773.917L834.667 848.583H865L831.75 715H730.25Z" fill="#E7E7E7"/>
<path d="M809.584 741.834H753.001L825.334 804.251L809.584 741.834Z" fill="#1B1B1B"/>
</svg>
