<svg viewBox="0 0 350 350" fill="none" xmlns="http://www.w3.org/2000/svg">
<g opacity="0.45">
<rect x="0.804519" y="174.951" width="246.419" height="246.419" transform="rotate(-45 0.804519 174.951)" stroke="#1B1B1B"/>
<rect x="44.6234" y="175.032" width="184.564" height="184.564" transform="rotate(-45 44.6234 175.032)" stroke="#1B1B1B" stroke-dasharray="4 4"/>
<path d="M175.049 44.4386V0.831055" stroke="url(#paint0_linear_2108_9)"/>
<path d="M175.049 349.691V306.084" stroke="url(#paint1_linear_2108_9)"/>
<path d="M349.788 174.951H306.181" stroke="url(#paint2_linear_2108_9)"/>
<path d="M43.6075 174.951H0" stroke="url(#paint3_linear_2108_9)"/>
<circle cx="175" cy="175" r="116.167" stroke="#1B1B1B" stroke-dasharray="4 4"/>
<path d="M244.954 169.031C244.974 170.352 244.988 171.676 244.995 173.005L244.495 173.007C244.498 173.671 244.5 174.335 244.5 175C244.5 175.665 244.498 176.33 244.495 176.993L244.995 176.996C244.988 178.324 244.974 179.649 244.954 180.969L244.454 180.962C244.434 182.287 244.407 183.608 244.373 184.926L244.872 184.938C244.838 186.268 244.797 187.593 244.75 188.913L244.25 188.895C244.202 190.219 244.147 191.539 244.086 192.854L244.585 192.877C244.523 194.206 244.455 195.531 244.379 196.85L243.88 196.822C243.804 198.144 243.721 199.462 243.632 200.774L244.131 200.808C244.041 202.137 243.943 203.46 243.839 204.778L243.341 204.739C243.237 206.059 243.126 207.374 243.008 208.683L243.506 208.728C243.386 210.055 243.26 211.376 243.127 212.692L242.629 212.641C242.496 213.959 242.356 215.271 242.209 216.576L242.706 216.632C242.556 217.957 242.4 219.275 242.237 220.587L241.741 220.525C241.577 221.841 241.407 223.149 241.23 224.45L241.725 224.518C241.545 225.839 241.358 227.153 241.165 228.459L240.67 228.386C240.475 229.698 240.274 231.003 240.065 232.299L240.559 232.379C240.347 233.695 240.128 235.003 239.903 236.303L239.41 236.217C239.183 237.526 238.948 238.826 238.707 240.118L239.199 240.21C238.954 241.519 238.702 242.819 238.443 244.11L237.953 244.012C237.692 245.317 237.423 246.612 237.147 247.898L237.636 248.003C237.357 249.303 237.071 250.594 236.778 251.874L236.29 251.762C235.993 253.063 235.687 254.353 235.375 255.632L235.861 255.75C235.546 257.039 235.224 258.317 234.895 259.584L234.411 259.458C234.074 260.753 233.73 262.036 233.379 263.307L233.86 263.44C233.506 264.722 233.144 265.993 232.774 267.25L232.294 267.109C231.918 268.389 231.535 269.656 231.143 270.909L231.621 271.058C231.222 272.334 230.817 273.596 230.403 274.843L229.929 274.686C229.511 275.945 229.086 277.191 228.653 278.421L229.124 278.587C228.678 279.853 228.225 281.104 227.763 282.339L227.295 282.164C226.828 283.411 226.354 284.641 225.872 285.854L226.336 286.039C225.843 287.28 225.341 288.505 224.831 289.71L224.371 289.515C223.849 290.749 223.319 291.963 222.781 293.157L223.237 293.363C222.688 294.582 222.13 295.78 221.564 296.957L221.114 296.74C220.536 297.942 219.949 299.122 219.355 300.279L219.799 300.508C219.184 301.706 218.559 302.879 217.926 304.028L217.488 303.786C216.842 304.957 216.188 306.102 215.525 307.22L215.955 307.475C215.272 308.627 214.58 309.75 213.879 310.845L213.458 310.575C212.735 311.704 212.003 312.801 211.262 313.867L211.672 314.152C210.901 315.26 210.121 316.335 209.331 317.374L208.933 317.072C208.121 318.139 207.3 319.17 206.469 320.162L206.853 320.483C205.988 321.516 205.112 322.509 204.226 323.46L203.86 323.119C202.948 324.098 202.025 325.032 201.093 325.92L201.438 326.282C200.461 327.213 199.474 328.093 198.476 328.922L198.156 328.537C197.127 329.391 196.088 330.19 195.039 330.932L195.328 331.34C194.226 332.119 193.113 332.836 191.989 333.49L191.738 333.058C190.587 333.727 189.426 334.328 188.255 334.861L188.462 335.316C187.24 335.871 186.006 336.353 184.762 336.758L184.608 336.282C183.357 336.69 182.096 337.018 180.826 337.267L180.922 337.757C179.62 338.012 178.309 338.183 176.988 338.269L176.956 337.77C176.306 337.812 175.654 337.833 175 337.833C174.346 337.833 173.694 337.812 173.044 337.77L173.012 338.269C171.691 338.183 170.379 338.012 169.078 337.757L169.174 337.267C167.904 337.018 166.643 336.69 165.392 336.282L165.237 336.758C163.993 336.353 162.76 335.871 161.538 335.316L161.745 334.861C160.574 334.328 159.413 333.727 158.262 333.058L158.011 333.49C156.887 332.836 155.774 332.119 154.672 331.34L154.961 330.932C153.912 330.19 152.872 329.391 151.844 328.537L151.524 328.922C150.526 328.093 149.538 327.213 148.562 326.282L148.907 325.92C147.974 325.032 147.052 324.098 146.14 323.119L145.774 323.46C144.888 322.509 144.012 321.516 143.147 320.483L143.531 320.162C142.7 319.17 141.879 318.139 141.067 317.072L140.669 317.374C139.879 316.335 139.098 315.26 138.328 314.152L138.738 313.867C137.997 312.801 137.265 311.704 136.542 310.575L136.121 310.845C135.42 309.75 134.728 308.627 134.045 307.475L134.475 307.22C133.812 306.102 133.157 304.957 132.512 303.786L132.074 304.028C131.441 302.879 130.816 301.706 130.201 300.508L130.645 300.279C130.05 299.122 129.464 297.942 128.886 296.74L128.435 296.957C127.87 295.78 127.312 294.581 126.763 293.363L127.219 293.157C126.681 291.963 126.151 290.749 125.629 289.515L125.169 289.71C124.659 288.504 124.157 287.28 123.663 286.039L124.128 285.854C123.646 284.641 123.172 283.411 122.705 282.164L122.237 282.339C121.775 281.104 121.321 279.853 120.876 278.587L121.347 278.421C120.914 277.191 120.489 275.945 120.071 274.686L119.597 274.843C119.183 273.596 118.777 272.334 118.379 271.058L118.857 270.909C118.465 269.656 118.082 268.389 117.705 267.109L117.226 267.25C116.856 265.993 116.494 264.722 116.139 263.44L116.621 263.307C116.27 262.036 115.926 260.753 115.589 259.458L115.105 259.584C114.776 258.317 114.454 257.039 114.139 255.75L114.625 255.632C114.313 254.353 114.007 253.063 113.71 251.762L113.222 251.874C112.929 250.594 112.643 249.303 112.364 248.003L112.853 247.898C112.577 246.612 112.308 245.317 112.047 244.012L111.557 244.11C111.298 242.819 111.046 241.519 110.801 240.21L111.293 240.118C111.052 238.826 110.817 237.526 110.59 236.217L110.097 236.303C109.872 235.003 109.653 233.695 109.441 232.379L109.935 232.299C109.726 231.003 109.525 229.698 109.33 228.386L108.835 228.459C108.642 227.153 108.455 225.839 108.275 224.518L108.77 224.45C108.593 223.149 108.422 221.841 108.259 220.525L107.763 220.587C107.6 219.275 107.444 217.957 107.294 216.632L107.791 216.576C107.644 215.271 107.504 213.959 107.37 212.641L106.873 212.692C106.74 211.376 106.614 210.055 106.494 208.728L106.992 208.683C106.874 207.374 106.763 206.059 106.659 204.739L106.161 204.778C106.057 203.46 105.959 202.137 105.869 200.808L106.368 200.774C106.278 199.462 106.196 198.144 106.12 196.822L105.621 196.851C105.545 195.531 105.476 194.206 105.414 192.877L105.914 192.854C105.853 191.539 105.798 190.219 105.75 188.895L105.25 188.913C105.203 187.593 105.162 186.268 105.127 184.938L105.627 184.926C105.593 183.608 105.566 182.287 105.546 180.962L105.046 180.969C105.026 179.649 105.012 178.324 105.005 176.996L105.505 176.993C105.502 176.33 105.5 175.665 105.5 175C105.5 174.335 105.502 173.671 105.505 173.007L105.005 173.005C105.012 171.676 105.026 170.352 105.046 169.031L105.546 169.039C105.566 167.713 105.593 166.392 105.627 165.075L105.127 165.062C105.162 163.733 105.203 162.408 105.25 161.087L105.75 161.105C105.798 159.781 105.853 158.462 105.914 157.147L105.414 157.124C105.476 155.794 105.545 154.47 105.621 153.15L106.12 153.179C106.196 151.856 106.278 150.539 106.368 149.227L105.869 149.193C105.959 147.864 106.057 146.54 106.161 145.223L106.659 145.262C106.763 143.942 106.874 142.627 106.992 141.318L106.494 141.273C106.614 139.946 106.74 138.624 106.873 137.309L107.37 137.359C107.504 136.041 107.644 134.73 107.791 133.424L107.294 133.368C107.444 132.043 107.6 130.725 107.763 129.414L108.259 129.475C108.422 128.16 108.593 126.852 108.77 125.55L108.275 125.483C108.455 124.162 108.642 122.848 108.835 121.541L109.33 121.615C109.525 120.302 109.726 118.998 109.935 117.701L109.441 117.622C109.653 116.306 109.872 114.998 110.097 113.698L110.59 113.783C110.817 112.475 111.052 111.174 111.293 109.883L110.801 109.791C111.046 108.482 111.298 107.181 111.557 105.89L112.047 105.988C112.308 104.684 112.577 103.388 112.853 102.102L112.364 101.997C112.643 100.697 112.929 99.4067 113.222 98.1264L113.71 98.2381C114.007 96.9377 114.313 95.6479 114.625 94.3689L114.139 94.2503C114.454 92.9614 114.776 91.6835 115.105 90.4169L115.589 90.5427C115.926 89.2478 116.27 87.9647 116.621 86.6938L116.139 86.5605C116.494 85.278 116.856 84.0079 117.226 82.7504L117.705 82.8914C118.082 81.6113 118.465 80.3445 118.857 79.0912L118.379 78.9423C118.777 77.6666 119.183 76.4049 119.597 75.1576L120.071 75.3149C120.489 74.055 120.914 72.8099 121.347 71.5798L120.876 71.4138C121.321 70.1471 121.775 68.8963 122.237 67.6618L122.705 67.8369C123.172 66.5899 123.646 65.3596 124.128 64.1466L123.663 63.9619C124.157 62.72 124.659 61.496 125.169 60.2904L125.629 60.4851C126.151 59.2515 126.681 58.0373 127.219 56.843L126.763 56.6376C127.312 55.419 127.87 54.2209 128.435 53.0439L128.886 53.2605C129.464 52.0583 130.05 50.8783 130.645 49.7211L130.201 49.4926C130.816 48.2949 131.441 47.1214 132.074 45.9727L132.512 46.2141C133.157 45.0432 133.812 43.8983 134.475 42.7801L134.045 42.5251C134.728 41.3736 135.42 40.2501 136.121 39.1554L136.542 39.4251C137.265 38.2968 137.997 37.1995 138.738 36.1339L138.328 35.8484C139.098 34.7401 139.879 33.6657 140.669 32.6261L141.067 32.9287C141.879 31.8612 142.7 30.8309 143.531 29.8388L143.147 29.5178C144.012 28.4844 144.888 27.4917 145.774 26.5409L146.14 26.8817C147.052 25.9023 147.974 24.968 148.907 24.0801L148.562 23.7181C149.539 22.7878 150.526 21.9076 151.524 21.0787L151.844 21.4633C152.873 20.6091 153.912 19.8105 154.961 19.0688L154.672 18.6606C155.774 17.8817 156.887 17.1645 158.011 16.5107L158.262 16.9429C159.413 16.2736 160.574 15.672 161.745 15.1398L161.538 14.6846C162.76 14.1291 163.994 13.6478 165.238 13.2428L165.392 13.7182C166.643 13.3109 167.904 12.9822 169.174 12.7339L169.078 12.2432C170.38 11.9889 171.691 11.8176 173.012 11.7316L173.044 12.2306C173.694 12.1883 174.346 12.167 175 12.167C175.654 12.167 176.306 12.1883 176.956 12.2306L176.988 11.7316C178.309 11.8176 179.621 11.9889 180.922 12.2432L180.826 12.7339C182.096 12.9822 183.357 13.3109 184.608 13.7182L184.762 13.2428C186.006 13.6478 187.24 14.1291 188.462 14.6847L188.255 15.1399C189.426 15.672 190.587 16.2736 191.738 16.9429L191.989 16.5108C193.113 17.1646 194.226 17.8818 195.328 18.6606L195.039 19.0689C196.088 19.8105 197.127 20.6092 198.156 21.4634L198.476 21.0787C199.474 21.9076 200.461 22.7879 201.438 23.7181L201.093 24.0802C202.026 24.9681 202.948 25.9023 203.86 26.8818L204.226 26.541C205.112 27.4918 205.988 28.4844 206.853 29.5179L206.469 29.8389C207.3 30.831 208.121 31.8612 208.933 32.9287L209.331 32.6262C210.121 33.6658 210.902 34.7402 211.672 35.8484L211.262 36.1339C212.003 37.1995 212.735 38.2969 213.458 39.4252L213.879 39.1555C214.58 40.2502 215.272 41.3736 215.955 42.5251L215.525 42.7802C216.188 43.8983 216.843 45.0432 217.488 46.2142L217.926 45.9728C218.559 47.1214 219.184 48.2949 219.799 49.4926L219.355 49.7212C219.949 50.8784 220.536 52.0583 221.114 53.2606L221.565 53.0439C222.13 54.2209 222.688 55.419 223.237 56.6377L222.781 56.8431C223.319 58.0373 223.849 59.2515 224.371 60.4851L224.831 60.2904C225.341 61.496 225.843 62.72 226.336 63.962L225.872 64.1466C226.354 65.3596 226.828 66.5899 227.295 67.837L227.763 67.6618C228.225 68.8963 228.678 70.1471 229.124 71.4138L228.653 71.5798C229.086 72.8099 229.511 74.055 229.928 75.3149L230.403 75.1576C230.817 76.4049 231.222 77.6666 231.621 78.9423L231.143 79.0912C231.535 80.3445 231.918 81.6113 232.294 82.8914L232.774 82.7504C233.144 84.0079 233.506 85.278 233.86 86.5605L233.379 86.6938C233.73 87.9647 234.074 89.2477 234.411 90.5427L234.895 90.4169C235.224 91.6835 235.546 92.9614 235.861 94.2503L235.375 94.3689C235.687 95.6479 235.993 96.9377 236.29 98.238L236.778 98.1264C237.071 99.4067 237.357 100.697 237.636 101.997L237.147 102.102C237.423 103.388 237.692 104.683 237.953 105.988L238.443 105.89C238.702 107.181 238.954 108.482 239.199 109.791L238.707 109.883C238.948 111.174 239.183 112.475 239.41 113.783L239.903 113.698C240.128 114.998 240.347 116.306 240.559 117.622L240.065 117.701C240.274 118.998 240.475 120.302 240.67 121.615L241.165 121.541C241.358 122.848 241.545 124.162 241.725 125.483L241.23 125.55C241.407 126.852 241.577 128.16 241.741 129.475L242.237 129.414C242.4 130.725 242.556 132.043 242.706 133.368L242.209 133.424C242.356 134.73 242.496 136.041 242.629 137.359L243.127 137.309C243.26 138.624 243.386 139.946 243.506 141.273L243.008 141.318C243.126 142.627 243.237 143.942 243.341 145.262L243.839 145.223C243.943 146.54 244.041 147.864 244.131 149.193L243.632 149.227C243.721 150.539 243.804 151.856 243.88 153.179L244.379 153.15C244.455 154.47 244.523 155.794 244.585 157.124L244.086 157.147C244.147 158.462 244.202 159.781 244.25 161.105L244.75 161.087C244.797 162.408 244.838 163.733 244.872 165.062L244.373 165.075C244.407 166.392 244.434 167.713 244.454 169.039L244.954 169.031Z" stroke="#1B1B1B" stroke-dasharray="4 4"/>
<path d="M220.244 121.315C221.192 122.234 222.139 123.161 223.083 124.096L222.731 124.451C223.202 124.918 223.673 125.386 224.144 125.857C224.614 126.327 225.083 126.798 225.549 127.269L225.905 126.918C226.839 127.862 227.766 128.808 228.686 129.756L228.327 130.104C229.25 131.056 230.165 132.01 231.072 132.965L231.435 132.621C232.35 133.585 233.258 134.551 234.158 135.518L233.792 135.859C234.695 136.829 235.589 137.8 236.475 138.774L236.845 138.437C237.741 139.421 238.629 140.406 239.509 141.393L239.136 141.725C240.017 142.714 240.89 143.704 241.755 144.695L242.132 144.366C243.007 145.37 243.874 146.374 244.733 147.38L244.352 147.704C245.212 148.712 246.064 149.72 246.906 150.729L247.29 150.408C248.144 151.431 248.989 152.455 249.825 153.479L249.437 153.795C250.275 154.822 251.103 155.849 251.922 156.876L252.313 156.564C253.145 157.606 253.966 158.649 254.778 159.691L254.384 159.999C255.198 161.044 256.003 162.09 256.798 163.135L257.196 162.833C258.003 163.894 258.8 164.956 259.587 166.016L259.185 166.314C259.975 167.38 260.755 168.445 261.524 169.509L261.93 169.216C262.711 170.297 263.481 171.376 264.24 172.455L263.832 172.743C264.596 173.829 265.35 174.914 266.093 175.998L266.505 175.715C267.258 176.814 267.999 177.912 268.729 179.007L268.313 179.285C269.051 180.392 269.777 181.498 270.491 182.603L270.911 182.331C271.633 183.448 272.343 184.562 273.041 185.675L272.618 185.941C273.327 187.071 274.023 188.199 274.706 189.324L275.134 189.064C275.823 190.198 276.498 191.33 277.161 192.458L276.73 192.711C277.408 193.865 278.072 195.016 278.722 196.163L279.157 195.916C279.813 197.074 280.455 198.228 281.083 199.378L280.644 199.618C281.283 200.789 281.908 201.956 282.517 203.119L282.96 202.887C283.58 204.07 284.186 205.25 284.775 206.424L284.328 206.648C284.924 207.835 285.504 209.016 286.067 210.192L286.518 209.976C287.099 211.186 287.662 212.392 288.209 213.591L287.754 213.799C288.306 215.01 288.84 216.215 289.357 217.414L289.816 217.216C290.345 218.443 290.856 219.664 291.348 220.877L290.885 221.065C291.388 222.306 291.872 223.539 292.336 224.764L292.804 224.587C293.277 225.837 293.73 227.078 294.162 228.311L293.69 228.476C294.132 229.735 294.551 230.984 294.949 232.223L295.425 232.07C295.837 233.352 296.225 234.624 296.589 235.884L296.109 236.022C296.481 237.307 296.827 238.579 297.149 239.839L297.633 239.715C297.965 241.012 298.27 242.296 298.548 243.566L298.06 243.673C298.346 244.982 298.605 246.275 298.834 247.553L299.326 247.464C299.565 248.793 299.773 250.105 299.949 251.399L299.454 251.466C299.635 252.795 299.783 254.104 299.897 255.393L300.395 255.349C300.514 256.691 300.596 258.012 300.643 259.311L300.143 259.329C300.19 260.666 300.199 261.979 300.167 263.266L300.667 263.279C300.634 264.627 300.558 265.948 300.439 267.24L299.941 267.194C299.817 268.525 299.647 269.825 299.43 271.091L299.923 271.175C299.694 272.505 299.414 273.799 299.082 275.056L298.599 274.929C298.258 276.215 297.863 277.462 297.411 278.666L297.879 278.842C297.408 280.099 296.876 281.311 296.283 282.477L295.837 282.25C295.241 283.423 294.582 284.547 293.859 285.621L294.274 285.9C293.533 287 292.727 288.048 291.854 289.043L291.478 288.713C291.049 289.202 290.603 289.678 290.14 290.141C289.678 290.604 289.202 291.05 288.712 291.479L289.042 291.855C288.048 292.728 286.999 293.534 285.899 294.274L285.62 293.86C284.546 294.582 283.422 295.241 282.25 295.838L282.477 296.283C281.31 296.877 280.098 297.409 278.841 297.88L278.665 297.412C277.461 297.863 276.215 298.259 274.928 298.599L275.056 299.083C273.799 299.415 272.504 299.695 271.175 299.923L271.09 299.431C269.824 299.648 268.524 299.818 267.193 299.941L267.239 300.439C265.947 300.559 264.626 300.635 263.278 300.668L263.266 300.168C261.979 300.199 260.666 300.191 259.328 300.143L259.31 300.643C258.012 300.597 256.691 300.514 255.348 300.395L255.392 299.897C254.103 299.783 252.794 299.635 251.466 299.454L251.398 299.95C250.104 299.773 248.792 299.566 247.464 299.327L247.552 298.835C246.275 298.605 244.981 298.347 243.672 298.06L243.565 298.549C242.295 298.27 241.012 297.965 239.714 297.634L239.838 297.15C238.579 296.828 237.306 296.481 236.022 296.11L235.883 296.59C234.623 296.225 233.351 295.837 232.069 295.426L232.222 294.95C230.983 294.552 229.734 294.132 228.475 293.691L228.31 294.163C227.078 293.731 225.836 293.278 224.586 292.804L224.763 292.337C223.538 291.873 222.305 291.389 221.064 290.885L220.876 291.349C219.663 290.857 218.443 290.346 217.215 289.817L217.413 289.358C216.215 288.841 215.009 288.306 213.798 287.754L213.591 288.209C212.391 287.663 211.186 287.099 209.975 286.519L210.191 286.068C209.015 285.504 207.834 284.925 206.648 284.329L206.423 284.776C205.249 284.186 204.07 283.581 202.886 282.961L203.118 282.518C201.956 281.908 200.788 281.284 199.617 280.645L199.378 281.083C198.227 280.456 197.073 279.814 195.916 279.157L196.162 278.722C195.015 278.072 193.864 277.408 192.711 276.731L192.457 277.162C191.329 276.499 190.198 275.823 189.064 275.134L189.323 274.707C188.198 274.024 187.07 273.327 185.94 272.618L185.674 273.042C184.562 272.344 183.447 271.634 182.33 270.912L182.602 270.492C181.498 269.778 180.392 269.052 179.284 268.314L179.007 268.73C177.911 268 176.813 267.259 175.715 266.506L175.997 266.093C174.913 265.351 173.828 264.597 172.742 263.832L172.454 264.241C171.376 263.481 170.296 262.711 169.216 261.93L169.509 261.525C168.444 260.756 167.379 259.976 166.314 259.186L166.016 259.587C164.955 258.8 163.894 258.004 162.832 257.197L163.135 256.799C162.089 256.004 161.044 255.199 159.998 254.385L159.691 254.779C158.648 253.967 157.605 253.145 156.563 252.314L156.875 251.923C155.848 251.104 154.821 250.276 153.795 249.438L153.479 249.825C152.454 248.989 151.431 248.144 150.408 247.29L150.728 246.906C149.719 246.064 148.711 245.213 147.704 244.353L147.379 244.733C146.374 243.875 145.369 243.008 144.366 242.132L144.694 241.756C143.703 240.891 142.713 240.018 141.725 239.136L141.392 239.509C140.405 238.63 139.42 237.742 138.436 236.846L138.773 236.476C137.8 235.59 136.828 234.695 135.858 233.793L135.517 234.159C134.55 233.259 133.584 232.351 132.62 231.435L132.964 231.073C132.009 230.165 131.055 229.25 130.104 228.327L129.756 228.686C128.807 227.767 127.861 226.84 126.917 225.905L127.269 225.55C126.797 225.083 126.326 224.615 125.856 224.144C125.386 223.674 124.917 223.203 124.45 222.732L124.095 223.083C123.16 222.139 122.233 221.193 121.314 220.245L121.673 219.897C120.75 218.945 119.835 217.991 118.928 217.036L118.565 217.38C117.649 216.416 116.741 215.45 115.842 214.483L116.208 214.142C115.305 213.172 114.411 212.201 113.524 211.227L113.155 211.564C112.259 210.58 111.371 209.595 110.491 208.608L110.864 208.276C109.983 207.287 109.11 206.297 108.245 205.306L107.868 205.635C106.992 204.631 106.125 203.627 105.267 202.621L105.647 202.297C104.787 201.289 103.936 200.281 103.094 199.272L102.71 199.593C101.856 198.57 101.011 197.546 100.175 196.522L100.562 196.206C99.7248 195.179 98.8964 194.152 98.0773 193.125L97.6864 193.437C96.8551 192.395 96.0334 191.352 95.2213 190.31L95.6157 190.002C94.8013 188.957 93.9966 187.911 93.2018 186.866L92.8038 187.168C91.9968 186.107 91.1999 185.045 90.4132 183.985L90.8148 183.687C90.0246 182.621 89.2447 181.556 88.4753 180.492L88.0701 180.785C87.2891 179.704 86.5189 178.625 85.7594 177.546L86.1683 177.258C85.4035 176.172 84.6498 175.087 83.9071 174.003L83.4946 174.286C82.7418 173.187 82.0003 172.089 81.2704 170.993L81.6865 170.716C80.9487 169.609 80.2227 168.503 79.5086 167.398L79.0887 167.67C78.3665 166.553 77.6563 165.439 76.9584 164.326L77.3819 164.06C76.673 162.93 75.9768 161.802 75.2933 160.677L74.8659 160.937C74.1771 159.803 73.5013 158.671 72.8384 157.543L73.2696 157.29C72.5919 156.136 71.928 154.985 71.2778 153.838L70.8428 154.085C70.1868 152.927 69.5447 151.773 68.9168 150.622L69.3557 150.383C68.7166 149.212 68.0921 148.045 67.4826 146.882L67.0397 147.114C66.4193 145.93 65.8141 144.751 65.2245 143.577L65.6713 143.353C65.0758 142.166 64.4961 140.985 63.9324 139.809L63.4816 140.025C62.9011 138.814 62.3375 137.609 61.791 136.41L62.246 136.202C61.694 134.991 61.1595 133.786 60.6427 132.587L60.1835 132.785C59.6544 131.558 59.1437 130.337 58.6517 129.124L59.1151 128.936C58.6116 127.695 58.1278 126.462 57.6638 125.237L57.1962 125.414C56.7227 124.164 56.2698 122.923 55.8376 121.69L56.3094 121.525C55.868 120.266 55.4483 119.017 55.0507 117.778L54.5746 117.931C54.163 116.649 53.7749 115.377 53.4104 114.117L53.8907 113.979C53.5192 112.694 53.1725 111.422 52.8507 110.162L52.3663 110.286C52.035 108.989 51.73 107.705 51.4517 106.435L51.9402 106.328C51.6533 105.019 51.395 103.726 51.1656 102.448L50.6734 102.537C50.4348 101.208 50.2271 99.8961 50.0507 98.6022L50.5461 98.5347C50.365 97.2061 50.2172 95.8969 50.103 94.6081L49.605 94.6522C49.486 93.3096 49.4033 91.9885 49.3572 90.69L49.8569 90.6723C49.8094 89.3346 49.8012 88.0216 49.8325 86.7346L49.3327 86.7224C49.3655 85.374 49.4415 84.0532 49.5612 82.7612L50.059 82.8074C50.1824 81.476 50.3525 80.1764 50.5699 78.9102L50.0771 78.8256C50.3053 77.4959 50.5853 76.2016 50.9177 74.9446L51.4011 75.0724C51.7414 73.7856 52.1371 72.5392 52.5886 71.335L52.1205 71.1594C52.5919 69.9024 53.1237 68.6898 53.717 67.5238L54.1626 67.7505C54.7591 66.578 55.4182 65.454 56.1408 64.3804L55.7259 64.1012C56.4663 63.0012 57.2725 61.9527 58.1456 60.9581L58.5213 61.288C58.9509 60.7986 59.3969 60.3225 59.8594 59.86C60.322 59.3974 60.798 58.9515 61.2874 58.5219L60.9576 58.1461C61.9522 57.2731 63.0006 56.4669 64.1007 55.7265L64.3799 56.1413C65.4534 55.4188 66.5775 54.7597 67.7499 54.1632L67.5232 53.7176C68.6893 53.1243 69.9018 52.5924 71.1589 52.1211L71.3344 52.5892C72.5386 52.1377 73.785 51.742 75.0719 51.4017L74.9441 50.9183C76.2011 50.5859 77.4953 50.3059 78.8251 50.0777L78.9097 50.5705C80.1759 50.3531 81.4754 50.183 82.8068 50.0597L82.7607 49.5618C84.0526 49.4421 85.3735 49.3661 86.7219 49.3333L86.734 49.8331C88.0211 49.8018 89.334 49.8101 90.6717 49.8575L90.6894 49.3578C91.988 49.4039 93.3091 49.4866 94.6516 49.6056L94.6075 50.1037C95.8964 50.2178 97.2056 50.3657 98.5341 50.5468L98.6017 50.0513C99.8955 50.2277 101.207 50.4354 102.536 50.6741L102.448 51.1662C103.725 51.3957 105.019 51.654 106.328 51.9408L106.435 51.4524C107.704 51.7306 108.988 52.0356 110.285 52.3669L110.162 52.8514C111.421 53.1731 112.694 53.5198 113.978 53.8914L114.117 53.4111C115.377 53.7755 116.648 54.1637 117.931 54.5752L117.778 55.0513C119.017 55.449 120.266 55.8686 121.524 56.3101L121.69 55.8383C122.922 56.2704 124.164 56.7234 125.414 57.1968L125.236 57.6644C126.461 58.1284 127.695 58.6122 128.936 59.1157L129.124 58.6524C130.337 59.1444 131.557 59.655 132.784 60.1842L132.586 60.6433C133.785 61.1601 134.99 61.6946 136.202 62.2467L136.409 61.7917C137.609 62.3382 138.814 62.9017 140.025 63.4822L139.809 63.9331C140.985 64.4967 142.166 65.0764 143.352 65.672L143.576 65.2251C144.751 65.8148 145.93 66.4199 147.114 67.0404L146.881 67.4832C148.044 68.0928 149.211 68.7172 150.382 69.3564L150.622 68.9175C151.772 69.5454 152.927 70.1874 154.084 70.8435L153.838 71.2785C154.985 71.9286 156.135 72.5926 157.289 73.2702L157.542 72.8391C158.671 73.5019 159.802 74.1778 160.936 74.8666L160.677 75.2939C161.802 75.9774 162.93 76.6737 164.06 77.3826L164.325 76.959C165.438 77.6569 166.553 78.3671 167.669 79.0894L167.398 79.5092C168.502 80.2233 169.608 80.9494 170.716 81.6871L170.993 81.271C172.089 82.001 173.186 82.7424 174.285 83.4953L174.002 83.9077C175.086 84.6504 176.172 85.4042 177.258 86.1689L177.546 85.7601C178.624 86.5195 179.704 87.2898 180.784 88.0707L180.491 88.4759C181.556 89.2454 182.621 90.0253 183.686 90.8155L183.984 90.4138C185.045 91.2005 186.106 91.9974 187.168 92.8044L186.865 93.2025C187.91 93.9973 188.956 94.802 190.002 95.6164L190.309 95.2219C191.352 96.034 192.394 96.8558 193.437 97.6871L193.125 98.078C194.152 98.897 195.179 99.7254 196.205 100.563L196.521 100.176C197.545 101.012 198.569 101.857 199.592 102.711L199.272 103.095C200.28 103.937 201.289 104.788 202.296 105.648L202.621 105.268C203.626 106.126 204.631 106.993 205.634 107.869L205.306 108.245C206.296 109.11 207.286 109.983 208.275 110.865L208.608 110.492C209.594 111.371 210.58 112.259 211.564 113.155L211.227 113.525C212.2 114.411 213.172 115.306 214.142 116.208L214.482 115.842C215.45 116.742 216.416 117.65 217.38 118.566L217.035 118.928C217.991 119.836 218.944 120.751 219.896 121.674L220.244 121.315Z" stroke="#1B1B1B" stroke-dasharray="4 4"/>
<path d="M228.477 220.036C227.558 220.985 226.631 221.931 225.696 222.875L225.341 222.523C224.874 222.995 224.406 223.466 223.935 223.936C223.465 224.407 222.994 224.875 222.522 225.342L222.874 225.697C221.93 226.632 220.984 227.559 220.035 228.478L219.687 228.119C218.736 229.042 217.782 229.957 216.827 230.865L217.171 231.227C216.207 232.143 215.241 233.051 214.274 233.951L213.933 233.585C212.963 234.487 211.991 235.381 211.018 236.268L211.355 236.637C210.371 237.534 209.386 238.422 208.399 239.301L208.066 238.928C207.078 239.809 206.088 240.683 205.097 241.547L205.426 241.924C204.422 242.8 203.417 243.667 202.412 244.525L202.087 244.145C201.08 245.005 200.072 245.856 199.063 246.698L199.383 247.082C198.36 247.936 197.337 248.781 196.312 249.617L195.996 249.23C194.97 250.067 193.943 250.896 192.916 251.715L193.228 252.106C192.186 252.937 191.143 253.759 190.1 254.571L189.793 254.176C188.748 254.991 187.702 255.795 186.656 256.59L186.959 256.988C185.898 257.795 184.836 258.592 183.775 259.379L183.478 258.977C182.412 259.768 181.347 260.547 180.283 261.317L180.575 261.722C179.495 262.503 178.416 263.273 177.337 264.033L177.049 263.624C175.963 264.389 174.878 265.142 173.794 265.885L174.076 266.298C172.978 267.05 171.88 267.792 170.784 268.522L170.507 268.106C169.399 268.843 168.293 269.569 167.189 270.284L167.461 270.703C166.344 271.426 165.229 272.136 164.117 272.834L163.851 272.41C162.721 273.119 161.593 273.815 160.468 274.499L160.728 274.926C159.594 275.615 158.462 276.291 157.334 276.954L157.081 276.523C155.927 277.2 154.776 277.864 153.629 278.514L153.876 278.949C152.718 279.605 151.564 280.247 150.413 280.875L150.174 280.436C149.003 281.076 147.836 281.7 146.673 282.31L146.905 282.752C145.721 283.373 144.542 283.978 143.368 284.568L143.143 284.121C141.957 284.716 140.776 285.296 139.6 285.86L139.816 286.311C138.605 286.891 137.4 287.455 136.201 288.001L135.993 287.546C134.782 288.098 133.576 288.633 132.378 289.149L132.576 289.609C131.348 290.138 130.128 290.648 128.915 291.14L128.727 290.677C127.486 291.181 126.253 291.664 125.028 292.128L125.205 292.596C123.955 293.069 122.714 293.522 121.481 293.955L121.316 293.483C120.057 293.924 118.808 294.344 117.569 294.741L117.722 295.218C116.44 295.629 115.168 296.017 113.908 296.382L113.769 295.901C112.485 296.273 111.213 296.62 109.953 296.941L110.077 297.426C108.78 297.757 107.496 298.062 106.226 298.34L106.119 297.852C104.81 298.139 103.516 298.397 102.239 298.627L102.327 299.119C100.999 299.357 99.6869 299.565 98.393 299.741L98.3255 299.246C96.9969 299.427 95.6877 299.575 94.3989 299.689L94.443 300.187C93.1005 300.306 91.7793 300.389 90.4808 300.435L90.4631 299.935C89.1254 299.983 87.8124 299.991 86.5254 299.96L86.5132 300.459C85.1648 300.427 83.844 300.351 82.5521 300.231L82.5982 299.733C81.2668 299.61 79.9672 299.44 78.701 299.222L78.6164 299.715C77.2867 299.487 75.9925 299.207 74.7354 298.874L74.8633 298.391C73.5764 298.051 72.33 297.655 71.1258 297.204L70.9502 297.672C69.6932 297.2 68.4806 296.668 67.3146 296.075L67.5413 295.63C66.3688 295.033 65.2448 294.374 64.1712 293.651L63.8921 294.066C62.792 293.326 61.7435 292.52 60.7489 291.647L61.0788 291.271C60.5894 290.841 60.1134 290.395 59.6508 289.933C59.1883 289.47 58.7423 288.994 58.3127 288.505L57.937 288.835C57.0639 287.84 56.2577 286.791 55.5173 285.691L55.9321 285.412C55.2096 284.339 54.5505 283.215 53.954 282.042L53.5084 282.269C52.9151 281.103 52.3833 279.89 51.9119 278.633L52.3801 278.458C51.9285 277.254 51.5328 276.007 51.1926 274.72L50.7092 274.848C50.3768 273.591 50.0968 272.297 49.8685 270.967L50.3613 270.882C50.1439 269.616 49.9738 268.317 49.8505 266.985L49.3526 267.031C49.2329 265.74 49.1569 264.419 49.1241 263.07L49.6239 263.058C49.5926 261.771 49.6009 260.458 49.6483 259.12L49.1487 259.103C49.1947 257.804 49.2775 256.483 49.3964 255.14L49.8945 255.185C50.0087 253.896 50.1565 252.587 50.3376 251.258L49.8422 251.19C50.0185 249.897 50.2262 248.585 50.4649 247.256L50.957 247.345C51.1865 246.067 51.4448 244.774 51.7316 243.465L51.2432 243.358C51.5215 242.088 51.8264 240.804 52.1577 239.507L52.6422 239.631C52.9639 238.371 53.3107 237.099 53.6822 235.814L53.2019 235.675C53.5663 234.415 53.9545 233.144 54.3661 231.862L54.8421 232.014C55.2398 230.776 55.6595 229.527 56.1009 228.268L55.6291 228.102C56.0612 226.87 56.5142 225.629 56.9877 224.379L57.4552 224.556C57.9192 223.331 58.4031 222.097 58.9065 220.856L58.4432 220.668C58.9352 219.455 59.4459 218.235 59.975 217.008L60.4341 217.206C60.951 216.007 61.4855 214.802 62.0375 213.59L61.5825 213.383C62.129 212.184 62.6925 210.978 63.273 209.767L63.7239 209.983C64.2876 208.808 64.8672 207.626 65.4628 206.44L65.016 206.216C65.6056 205.041 66.2107 203.862 66.8312 202.679L67.274 202.911C67.8836 201.748 68.508 200.581 69.1472 199.41L68.7083 199.17C69.3362 198.02 69.9783 196.866 70.6343 195.708L71.0693 195.954C71.7194 194.807 72.3834 193.657 73.061 192.503L72.6299 192.25C73.2927 191.121 73.9686 189.99 74.6574 188.856L75.0847 189.116C75.7682 187.99 76.4645 186.863 77.1734 185.733L76.7498 185.467C77.4478 184.354 78.1579 183.239 78.8802 182.123L79.3 182.394C80.0142 181.29 80.7402 180.184 81.478 179.076L81.0618 178.799C81.7918 177.703 82.5333 176.606 83.2861 175.507L83.6986 175.79C84.4412 174.706 85.195 173.621 85.9597 172.534L85.5509 172.247C86.3103 171.168 87.0806 170.088 87.8615 169.008L88.2667 169.301C89.0362 168.237 89.8161 167.171 90.6063 166.106L90.2047 165.808C90.9914 164.747 91.7883 163.686 92.5953 162.625L92.9933 162.927C93.7881 161.882 94.5928 160.836 95.4072 159.79L95.0128 159.483C95.8248 158.44 96.6466 157.398 97.4779 156.355L97.8688 156.667C98.6879 155.64 99.5162 154.613 100.354 153.587L99.9665 153.271C100.802 152.247 101.647 151.223 102.502 150.2L102.885 150.521C103.728 149.512 104.579 148.503 105.439 147.496L105.058 147.172C105.917 146.166 106.784 145.161 107.66 144.158L108.036 144.487C108.901 143.496 109.774 142.506 110.656 141.517L110.282 141.184C111.162 140.198 112.05 139.212 112.946 138.229L113.316 138.565C114.202 137.592 115.097 136.62 115.999 135.65L115.633 135.31C116.533 134.342 117.441 133.376 118.357 132.412L118.719 132.757C119.627 131.801 120.542 130.848 121.464 129.896L121.105 129.548C122.025 128.6 122.952 127.654 123.886 126.709L124.242 127.061C124.708 126.59 125.177 126.119 125.647 125.648C126.118 125.178 126.589 124.709 127.06 124.243L126.709 123.887C127.653 122.953 128.599 122.026 129.547 121.106L129.895 121.465C130.847 120.543 131.8 119.627 132.756 118.72L132.411 118.358C133.376 117.442 134.341 116.534 135.309 115.634L135.649 116C136.62 115.098 137.591 114.203 138.564 113.317L138.228 112.947C139.212 112.051 140.197 111.163 141.183 110.283L141.516 110.657C142.505 109.775 143.495 108.902 144.486 108.037L144.157 107.66C145.161 106.785 146.165 105.918 147.171 105.059L147.495 105.44C148.503 104.58 149.511 103.729 150.52 102.886L150.199 102.502C151.222 101.648 152.246 100.803 153.27 99.9674L153.586 100.355C154.613 99.5172 155.639 98.6888 156.666 97.8697L156.355 97.4788C157.397 96.6475 158.44 95.8258 159.482 95.0137L159.789 95.4081C160.835 94.5937 161.881 93.789 162.926 92.9942L162.624 92.5962C163.685 91.7892 164.746 90.9923 165.807 90.2056L166.105 90.6072C167.171 89.817 168.236 89.0371 169.3 88.2677L169.007 87.8625C170.087 87.0815 171.167 86.3113 172.246 85.5518L172.533 85.9607C173.62 85.1959 174.705 84.4422 175.789 83.6995L175.506 83.287C176.605 82.5342 177.702 81.7927 178.798 81.0627L179.076 81.4789C180.183 80.7411 181.289 80.0151 182.393 79.3009L182.122 78.8811C183.238 78.1589 184.353 77.4487 185.466 76.7508L185.732 77.1743C186.862 76.4654 187.99 75.7692 189.115 75.0857L188.855 74.6583C189.989 73.9695 191.12 73.2937 192.249 72.6308L192.502 73.062C193.656 72.3843 194.806 71.7204 195.954 71.0702L195.707 70.6352C196.865 69.9792 198.019 69.3371 199.169 68.7092L199.409 69.1481C200.58 68.509 201.747 67.8845 202.91 67.275L202.678 66.8321C203.861 66.2116 205.04 65.6065 206.215 65.0169L206.439 65.4637C207.625 64.8682 208.807 64.2885 209.982 63.7248L209.766 63.274C210.977 62.6935 212.183 62.1299 213.382 61.5834L213.589 62.0384C214.801 61.4864 216.006 60.9519 217.205 60.4351L217.007 59.9759C218.234 59.4468 219.454 58.9361 220.667 58.4441L220.855 58.9074C222.097 58.404 223.33 57.9202 224.555 57.4562L224.378 56.9886C225.628 56.5151 226.869 56.0622 228.101 55.63L228.267 56.1018C229.526 55.6604 230.775 55.2407 232.014 54.8431L231.861 54.367C233.143 53.9554 234.414 53.5673 235.674 53.2028L235.813 53.6831C237.098 53.3116 238.37 52.9649 239.63 52.6431L239.506 52.1587C240.803 51.8274 242.087 51.5224 243.357 51.2441L243.464 51.7325C244.773 51.4457 246.066 51.1874 247.344 50.958L247.255 50.4658C248.584 50.2272 249.896 50.0195 251.19 49.8431L251.257 50.3385C252.586 50.1574 253.895 50.0096 255.184 49.8954L255.14 49.3974C256.482 49.2784 257.803 49.1957 259.102 49.1496L259.12 49.6493C260.457 49.6018 261.77 49.5936 263.057 49.6249L263.069 49.1251C264.418 49.1579 265.739 49.2339 267.031 49.3536L266.984 49.8514C268.316 49.9748 269.615 50.1449 270.882 50.3623L270.966 49.8695C272.296 50.0977 273.59 50.3777 274.847 50.7101L274.719 51.1935C276.006 51.5338 277.253 51.9295 278.457 52.381L278.632 51.9129C279.889 52.3843 281.102 52.9161 282.268 53.5094L282.041 53.955C283.214 54.5515 284.338 55.2106 285.411 55.9331L285.691 55.5183C286.791 56.2587 287.839 57.0649 288.834 57.938L288.504 58.3137C288.993 58.7433 289.469 59.1892 289.932 59.6518C290.394 60.1143 290.84 60.5904 291.27 61.0798L291.646 60.75C292.519 61.7446 293.325 62.793 294.065 63.8931L293.65 64.1723C294.373 65.2458 295.032 66.3699 295.629 67.5423L296.074 67.3156C296.667 68.4817 297.199 69.6942 297.671 70.9513L297.203 71.1268C297.654 72.331 298.05 73.5774 298.39 74.8643L298.873 74.7365C299.206 75.9935 299.486 77.2877 299.714 78.6175L299.221 78.7021C299.439 79.9683 299.609 81.2678 299.732 82.5992L300.23 82.5531C300.35 83.845 300.426 85.1659 300.459 86.5143L299.959 86.5264C299.99 87.8135 299.982 89.1264 299.934 90.4641L300.434 90.4818C300.388 91.7804 300.305 93.1015 300.186 94.444L299.688 94.3999C299.574 95.6888 299.426 96.998 299.245 98.3265L299.74 98.3941C299.564 99.6879 299.356 101 299.118 102.328L298.626 102.24C298.396 103.517 298.138 104.811 297.851 106.12L298.339 106.227C298.061 107.497 297.756 108.781 297.425 110.078L296.94 109.954C296.619 111.214 296.272 112.486 295.9 113.77L296.381 113.909C296.016 115.169 295.628 116.441 295.217 117.723L294.74 117.57C294.343 118.809 293.923 120.058 293.482 121.317L293.954 121.482C293.521 122.715 293.068 123.956 292.595 125.206L292.127 125.029C291.663 126.254 291.18 127.487 290.676 128.728L291.139 128.916C290.647 130.129 290.137 131.35 289.608 132.577L289.148 132.379C288.632 133.577 288.097 134.783 287.545 135.994L288 136.202C287.454 137.401 286.89 138.606 286.31 139.817L285.859 139.601C285.295 140.777 284.715 141.958 284.12 143.144L284.567 143.369C283.977 144.543 283.372 145.722 282.751 146.906L282.309 146.674C281.699 147.837 281.075 149.004 280.435 150.175L280.874 150.414C280.246 151.565 279.604 152.719 278.948 153.877L278.513 153.63C277.863 154.777 277.199 155.928 276.522 157.082L276.953 157.335C276.29 158.463 275.614 159.595 274.925 160.729L274.498 160.469C273.814 161.594 273.118 162.722 272.409 163.852L272.833 164.118C272.135 165.23 271.425 166.345 270.702 167.462L270.283 167.19C269.568 168.294 268.842 169.4 268.105 170.508L268.521 170.785C267.791 171.881 267.049 172.979 266.297 174.077L265.884 173.795C265.141 174.879 264.388 175.964 263.623 177.05L264.032 177.338C263.272 178.417 262.502 179.496 261.721 180.576L261.316 180.284C260.546 181.348 259.767 182.413 258.976 183.479L259.378 183.776C258.591 184.837 257.794 185.899 256.987 186.96L256.589 186.657C255.794 187.703 254.99 188.749 254.175 189.794L254.57 190.101C253.758 191.144 252.936 192.187 252.105 193.229L251.714 192.917C250.895 193.944 250.066 194.971 249.229 195.997L249.616 196.314C248.78 197.338 247.935 198.361 247.081 199.384L246.697 199.064C245.855 200.073 245.004 201.081 244.144 202.088L244.524 202.413C243.666 203.419 242.799 204.423 241.923 205.427L241.546 205.098C240.682 206.089 239.808 207.079 238.927 208.067L239.3 208.4C238.421 209.387 237.533 210.372 236.636 211.356L236.267 211.019C235.38 211.992 234.486 212.964 233.583 213.934L233.95 214.275C233.05 215.242 232.142 216.208 231.226 217.172L230.863 216.828C229.956 217.783 229.041 218.737 228.118 219.688L228.477 220.036Z" stroke="#1B1B1B" stroke-dasharray="4 4"/>
<path d="M261.86 244.349H231.086L139.473 166.69L138.849 166.161L138.662 166.957L120.524 244.349H88.1397L122.526 106.2H227.474L261.86 244.349Z" stroke="black" stroke-opacity="0.4"/>
</g>
<g opacity="0.75">
<path d="M161.864 96.0511C165.96 83.8335 176.61 66.729 186.441 96.0511C187.359 115.472 188.644 157.449 186.441 169.992L183.686 187.153C182.7 187.693 181.215 188.306 179.449 188.739L179.392 189.641C186.973 188.241 196.572 188.953 200.424 189.483V190.543C190.932 192.577 182.409 191.39 179.334 190.543L177.966 211.941L179.449 245.415V274.812C187.562 274.793 195.757 275.521 202.331 277.619V303.254L176.483 306.009L150.212 303.254V277.619C155.233 276.628 163.476 275.451 172.458 275V245.415V211.941L170.896 191.39C167.391 192.026 158.263 192.915 149.788 191.39V190.543C154.4 189.659 165.059 188.326 170.795 190.064L170.695 188.739C169.495 188.397 168.304 187.883 167.161 187.153L163.559 169.992C162.429 155.02 160.508 119.271 161.864 96.0511Z" fill="#D7D9D6"/>
<path d="M149.788 215.966C148.602 217.322 139.266 218.791 134.746 219.356L133.686 215.966C141.653 212.238 147.034 211.023 148.729 210.882L155.72 210.034L156.568 213.212L149.788 215.966Z" fill="#D7D9D6"/>
<path d="M119.28 219.356H126.059L126.907 222.11L121.398 225.288C118.686 226.814 110.24 227.901 106.356 228.254L105.508 225.288C111.102 221.729 117.02 219.851 119.28 219.356Z" fill="#D7D9D6"/>
<path d="M179.449 188.739C181.215 188.306 182.7 187.693 183.686 187.153L186.441 169.992C188.644 157.449 187.359 115.472 186.441 96.0511C176.61 66.729 165.96 83.8335 161.864 96.0511C160.508 119.271 162.429 155.02 163.559 169.992L167.161 187.153C168.304 187.883 169.495 188.397 170.695 188.739M179.449 188.739C176.902 189.363 173.768 189.615 170.695 188.739M179.449 188.739L179.392 189.641M179.449 245.415L177.966 211.941L179.334 190.543M179.449 245.415H172.458M179.449 245.415V283.975H172.458V245.415M172.458 245.415V211.941L170.896 191.39M170.695 188.739L170.795 190.064M179.334 190.543C182.409 191.39 190.932 192.577 200.424 190.543V189.483C196.572 188.953 186.973 188.241 179.392 189.641M179.334 190.543L179.392 189.641M170.896 191.39C167.391 192.026 158.263 192.915 149.788 191.39V190.543C154.4 189.659 165.059 188.326 170.795 190.064M170.896 191.39L170.795 190.064M150.212 277.619C160.946 275.5 186.398 272.534 202.331 277.619V303.254L176.483 306.009L150.212 303.254V277.619ZM134.746 219.356C139.266 218.791 148.602 217.322 149.788 215.966L156.568 213.212L155.72 210.034L148.729 210.882C147.034 211.023 141.653 212.238 133.686 215.966L134.746 219.356ZM126.059 219.356H119.28C117.02 219.851 111.102 221.729 105.508 225.288L106.356 228.254C110.24 227.901 118.686 226.814 121.398 225.288L126.907 222.11L126.059 219.356Z" stroke="#1B1B1B" stroke-opacity="0.75" stroke-dasharray="5 5"/>
<path d="M325 138.424C248.39 131.135 93.0791 135.387 25 138.424V162.152C117.373 181.135 239.195 180.373 325 158.974V138.424Z" fill="#D7D9D6" stroke="#1B1B1B" stroke-opacity="0.75" stroke-dasharray="5 5"/>
<rect x="216.102" y="87.5762" width="7.62712" height="127.966" fill="#D7D9D6"/>
<rect x="216.602" y="88.0762" width="6.62712" height="126.966" stroke="#1B1B1B" stroke-opacity="0.75" stroke-dasharray="5 5"/>
<rect x="126.695" y="89.271" width="7.62712" height="127.966" fill="#D7D9D6"/>
<rect x="127.195" y="89.771" width="6.62712" height="126.966" stroke="#1B1B1B" stroke-opacity="0.75" stroke-dasharray="5 5"/>
<path d="M195.127 99.2287L193.856 95.8389L202.966 90.7541C204.831 89.3982 208.404 88.6355 209.958 88.4236L215.89 87.5762V90.7541L212.076 93.2965C211.229 94.483 207.627 95.9095 205.932 96.4745L195.127 99.2287Z" fill="#D7D9D6"/>
<path d="M220.763 88.8474L219.915 86.305C228.729 80.7118 235.311 79.1722 237.5 79.1016L243.644 77.1948L244.703 79.7372L237.5 83.9745C233.771 86.1779 224.788 88.1412 220.763 88.8474Z" fill="#D7D9D6"/>
<path d="M195.127 99.2287L193.856 95.8389L202.966 90.7541C204.831 89.3982 208.404 88.6355 209.958 88.4236L215.89 87.5762V90.7541L212.076 93.2965C211.229 94.483 207.627 95.9095 205.932 96.4745L195.127 99.2287Z" stroke="#1B1B1B" stroke-opacity="0.75" stroke-dasharray="5 5"/>
<path d="M220.763 88.8474L219.915 86.305C228.729 80.7118 235.311 79.1722 237.5 79.1016L243.644 77.1948L244.703 79.7372L237.5 83.9745C233.771 86.1779 224.788 88.1412 220.763 88.8474Z" stroke="#1B1B1B" stroke-opacity="0.75" stroke-dasharray="5 5"/>
<circle cx="219.915" cy="86.7286" r="3.81356" fill="#D7D9D6"/>
<circle cx="219.915" cy="86.7286" r="4.31356" stroke="#1B1B1B" stroke-opacity="0.75" stroke-dasharray="5 5"/>
<circle cx="219.915" cy="217.661" r="3.81356" fill="#D7D9D6"/>
<circle cx="219.915" cy="217.661" r="4.31356" stroke="#1B1B1B" stroke-opacity="0.75" stroke-dasharray="5 5"/>
<circle cx="130.508" cy="219.356" r="3.81356" fill="#D7D9D6"/>
<circle cx="130.508" cy="219.356" r="4.31356" stroke="#1B1B1B" stroke-opacity="0.75" stroke-dasharray="5 5"/>
<path d="M219.915 221.051H222.881L225.212 225.924C226.568 229.144 227.613 237.717 227.966 241.602L225.212 242.449C221.822 234.822 220.268 229.243 219.915 227.407V221.051Z" fill="#D7D9D6" stroke="#1B1B1B" stroke-opacity="0.75" stroke-dasharray="5 5"/>
<path d="M220.339 213.646L217.373 213.642L215.049 208.766C213.697 205.544 212.663 196.969 212.315 193.085L215.07 192.241C218.45 199.872 219.996 205.453 220.347 207.29L220.339 213.646Z" fill="#D7D9D6" stroke="#1B1B1B" stroke-opacity="0.75" stroke-dasharray="5 5"/>
<circle cx="130.508" cy="88.4239" r="3.81356" fill="#D7D9D6"/>
<circle cx="130.508" cy="88.4239" r="4.31356" stroke="#1B1B1B" stroke-opacity="0.75" stroke-dasharray="5 5"/>
<path d="M130.508 91.8135H133.475L135.805 96.6864C137.161 99.9067 138.206 108.48 138.559 112.364L135.805 113.212C132.415 105.585 130.862 100.006 130.508 98.1694V91.8135Z" fill="#D7D9D6" stroke="#1B1B1B" stroke-opacity="0.75" stroke-dasharray="5 5"/>
<path d="M130.932 84.4087L127.966 84.4048L125.642 79.529C124.29 76.3069 123.256 67.7321 122.908 63.8474L125.663 63.0035C129.043 70.635 130.59 76.2162 130.94 78.0528L130.932 84.4087Z" fill="#D7D9D6" stroke="#1B1B1B" stroke-opacity="0.75" stroke-dasharray="5 5"/>
</g>
<defs>
<linearGradient id="paint0_linear_2108_9" x1="175.549" y1="0.831055" x2="175.549" y2="44.4386" gradientUnits="userSpaceOnUse">
<stop stop-color="#1B1B1B"/>
<stop offset="1" stop-color="#1B1B1B" stop-opacity="0"/>
</linearGradient>
<linearGradient id="paint1_linear_2108_9" x1="175.549" y1="306.084" x2="175.549" y2="349.691" gradientUnits="userSpaceOnUse">
<stop stop-color="#1B1B1B" stop-opacity="0"/>
<stop offset="1" stop-color="#27241D"/>
</linearGradient>
<linearGradient id="paint2_linear_2108_9" x1="306.181" y1="174.451" x2="349.788" y2="174.451" gradientUnits="userSpaceOnUse">
<stop offset="0.0792716" stop-color="#1B1B1B" stop-opacity="0"/>
<stop offset="1" stop-color="#1B1B1B"/>
</linearGradient>
<linearGradient id="paint3_linear_2108_9" x1="0" y1="174.451" x2="43.6075" y2="174.451" gradientUnits="userSpaceOnUse">
<stop stop-color="#1B1B1B"/>
<stop offset="1" stop-color="#1B1B1B" stop-opacity="0"/>
</linearGradient>
</defs>
</svg>
